<svg width="125" height="149" viewBox="0 0 125 149" fill="none" xmlns="http://www.w3.org/2000/svg">
<path fill-rule="evenodd" clip-rule="evenodd" d="M84.1662 131.346C83.781 130.092 84.6786 131.155 83.8012 130.181C83.7003 130.068 83.5639 130.055 83.4161 130.018C81.1579 129.455 78.7919 129.652 76.4622 129.693C67.431 129.852 58.4205 131.102 49.4158 131.44C48.724 131.466 47.9957 131.338 47.3534 131.6C46.8386 131.81 46.8584 132.048 46.4337 132.406C45.7169 132.372 45.1068 132.929 45.0734 133.646C45.0401 134.364 45.5969 134.975 46.3137 135.008C46.7789 135.398 46.8764 135.698 47.4432 135.915C50.6985 137.159 54.4104 136.08 57.8935 135.843C64.9193 135.366 71.9406 134.492 78.9426 133.806C80.5112 133.652 82.3376 134.176 83.6106 133.249C84.588 132.54 83.6717 133.081 84.153 131.975C84.3267 131.978 84.469 131.84 84.4721 131.665C84.4771 131.492 84.3406 131.348 84.1662 131.346Z"/>
<path fill-rule="evenodd" clip-rule="evenodd" d="M49.4199 132.052C49.3847 131.878 49.3458 131.666 49.3836 131.477C49.4772 131.016 49.8261 130.675 50.0019 130.02C50.2856 128.967 50.408 127.605 50.5246 125.973C50.9683 119.714 50.9618 109.731 50.9592 98.9361C50.956 82.0303 50.4228 63.137 50.2403 53.2929C50.2189 52.1505 50.3044 51.1233 50.1618 50.2539C50.0198 49.389 49.7101 48.8074 49.532 48.2221C49.5458 47.6216 49.0689 47.1202 48.4679 47.1069C47.8669 47.0937 47.3658 47.5699 47.352 48.1703C47.1456 48.7515 46.8152 49.3286 46.6446 50.1951C46.4733 51.0636 46.531 52.0978 46.4796 53.2427C46.0496 63.0862 45.2787 81.9916 45.1554 98.9115C45.077 109.719 44.907 119.735 45.5299 125.987C45.9931 130.638 46.9171 133.269 46.994 133.362C47.317 133.968 48.5395 134.647 50.2483 134.936C52.2716 135.277 55.018 135.327 56.5419 135.167C60.4168 134.772 64.3377 134.393 68.2599 134.194C70.8522 134.063 73.4437 134.018 76.0191 134.087C77.7763 134.135 81.1015 134.6 83.1574 133.995C85.094 133.426 86.2343 132.156 86.1469 129.995C85.4304 115.059 85.5266 100.958 85.1266 88.4784C84.6325 73.0308 83.7537 60.096 83.1771 51.0447C83.1205 50.1736 83.1504 49.3288 82.9985 48.5436C82.8798 47.9315 82.6497 47.4421 82.4708 46.8885C82.4646 46.715 82.3206 46.5792 82.148 46.5846C81.9754 46.5899 81.8376 46.7347 81.8438 46.9083C81.6988 47.4698 81.4952 47.9665 81.4063 48.5814C81.2926 49.3688 81.3553 50.2059 81.3294 51.0758C81.061 60.1478 80.0818 73.0991 80.1163 88.5634C80.1439 101.108 81.0794 115.252 82.1714 130.234C82.1906 130.468 81.8811 130.349 81.6504 130.401C81.0916 130.526 80.4494 130.574 79.7969 130.584C78.4014 130.606 76.9764 130.487 76.0397 130.501C73.3757 130.542 70.7045 130.709 68.0328 130.949C64.0696 131.304 60.1136 131.817 56.2039 132.357C55.4096 132.463 54.234 132.515 53.0354 132.486C51.852 132.458 50.6452 132.361 49.7722 132.153C49.6618 132.13 49.5333 132.09 49.4199 132.052Z"/>
<path fill-rule="evenodd" clip-rule="evenodd" d="M28.5956 56.1169C29.8732 54.4832 31.4576 52.8458 32.1518 51.9182L46.6549 31.9842L58.8514 14.7607C59.3512 14.0743 60.0757 12.9121 60.9406 11.925C61.3761 11.4262 61.7928 10.8882 62.2796 10.7106C61.7798 12.0262 65.2684 14.238 65.8889 14.9179L79.2394 29.273C82.7662 33.0811 86.4048 36.9142 90.1403 40.6214C92.6512 43.1098 95.2045 45.5395 97.8021 47.8638C98.9653 48.9544 101.026 50.6582 102.525 52.5031L102.574 52.5643L100.724 52.7016C96.9437 53.2496 92.7617 53.6073 88.6809 53.9882C86.927 54.1511 85.2321 54.4069 83.5471 54.5124C82.9653 54.5492 82.2738 54.247 81.8319 54.6086L81.5925 54.7963L81.6144 54.8453C81.6843 55.1649 81.647 55.6495 81.5235 55.9345C81.4799 56.0379 81.2061 55.9665 81.1826 56.2187C81.159 56.4709 81.4423 56.4518 81.4667 56.5594C81.5398 56.8825 81.4314 57.353 81.3861 57.6805L81.3637 57.7812L81.467 57.9058C81.5715 58.0331 81.7858 57.9708 81.9489 58.0025C83.7082 58.3596 85.5029 58.7001 87.3901 58.8317C92.0807 59.1587 96.9825 58.6366 101.378 58.2657L104.907 57.7315C104.932 57.7284 106.069 57.6316 106.511 57.572C108.757 57.2656 109.038 55.0452 109.025 54.8649C108.922 53.3856 108.248 51.8036 107.079 50.3318C105.248 48.0322 102.293 45.8638 100.698 44.5627C97.4621 41.7894 94.2879 38.8531 91.1838 35.8385C88.0667 32.8104 85.0229 29.7073 82.0541 26.6197L68.6069 12.4313C67.9689 11.7384 66.3808 9.23722 65.0087 8.04625C64.1643 7.31168 63.2951 6.98084 62.6025 6.98431C61.5313 6.98588 60.4511 7.45061 59.4602 8.24879C57.9654 9.45356 56.6489 11.4985 55.862 12.5643L43.4886 29.7037L28.7931 49.351C27.9556 50.4319 25.8725 52.4801 24.5021 54.3591C23.5827 55.6209 22.9907 56.8717 22.8632 57.838C22.7546 58.6595 23.0866 59.9773 24.8071 60.538C26.2456 61.0071 30.3546 61.0799 30.8029 61.0697L46.7824 59.5231C48.0818 59.4109 49.0444 58.266 48.9319 56.9671C48.8194 55.6681 47.6755 54.7047 46.3761 54.8169L30.6703 56.5954C30.5075 56.6045 29.5765 56.3123 28.5956 56.1169Z"/>
<path fill-rule="evenodd" clip-rule="evenodd" d="M55.3008 130.445C55.5722 131.994 56.4237 133.232 57.9409 133.962C59.6592 134.79 61.5949 134.781 63.4881 134.048C65.5128 133.264 67.4938 131.753 68.7323 130.674C69.435 130.116 70.0574 129.414 70.6177 128.603L74.6683 124.687L74.5975 124.797L73.1891 126.895C72.9471 127.268 72.2723 127.925 72.0635 128.293C71.6851 128.961 71.6854 129.578 71.7427 130.002C71.8786 131.031 72.4204 132.18 74.3898 132.172C74.9589 132.168 75.61 132.002 76.283 131.676C77.1038 132.117 78.5766 132.591 79.6261 131.252C80.059 130.7 81.075 129.355 81.3022 129.045C82.0201 128.067 82.8619 126.998 83.5425 125.875C84.1039 124.949 84.5434 123.976 84.797 122.991C85.326 120.94 83.8435 120.272 83.3092 120.053C83.2144 120.013 83.105 119.976 82.9854 119.947C83.2515 119.511 83.4807 119.125 83.6414 118.806L83.7232 118.602L83.8171 118.443C83.9035 118.268 83.982 117.906 84.0524 117.393C84.3186 116.143 84.5824 114.205 84.6345 111.86C84.6576 110.813 84.6181 109.683 84.5457 108.498C84.7136 102.173 84.7343 94.4323 84.7158 90.196L84.7167 90.0336L84.7604 89.5857C84.8352 88.7172 84.8524 88.0902 84.8468 87.8141C84.8118 86.2448 83.7835 85.6761 83.5904 85.5753C83.3895 85.4715 83.0385 85.3195 82.6266 85.2515C82.5504 85.1798 82.5105 85.1369 82.5198 85.1361C82.3795 85.1452 82.2223 85.1692 82.0551 85.2194C81.6508 85.2441 81.2323 85.3834 80.8653 85.7305C81.4626 82.7801 81.9493 80.4428 82.2863 79.1362C82.6279 77.8056 81.8397 77.225 81.4917 76.9821C81.1592 76.7515 80.6866 76.5471 80.0939 76.6483C80.6797 74.31 81.1403 72.4273 81.4362 71.2057C81.7825 69.6372 81.0488 68.8889 80.4101 68.5361C81.0515 66.0625 81.613 64.0318 82.0747 62.6567C82.6544 61.0288 81.7122 60.3451 80.9927 60.0815C81.5157 59.3632 82.0364 58.6034 82.4702 57.86C82.6498 57.5512 82.8109 57.244 82.9515 56.9376C83.7341 56.7198 84.8945 55.8295 85.6649 55.5194C87.1076 54.9392 88.5344 54.1989 89.9803 53.4914C90.7651 53.7903 91.6376 53.9105 92.5479 53.8952C93.4536 53.8803 94.4079 53.7189 95.3131 53.539C95.3202 53.7279 95.3584 53.8644 95.3757 53.9373C95.5446 54.6539 96.6999 56.4478 98.5402 55.0356C98.6918 54.9195 99.1922 54.3918 99.3926 54.1764C99.7885 53.7526 100.347 53.2081 100.729 52.6358C101.014 52.2149 101.218 51.7717 101.325 51.3348C101.425 50.9256 101.432 50.5751 101.375 50.2752C102.051 49.9957 102.299 49.3231 102.373 48.8545C102.391 48.7396 102.665 47.7965 101.603 47.0075L89.8708 38.1486L87.4559 36.071C86.5437 34.5659 85.4291 33.1749 84.2211 31.8469C82.3444 29.7823 80.2344 27.8778 78.3752 25.9097L75.9767 23.3674C75.0524 22.2088 74.1292 21.0656 73.2018 19.9508C73.0922 19.8194 73.016 19.7478 72.9799 19.7127C72.4149 19.1887 71.9072 19.1722 71.7246 19.1567C71.1595 19.1078 70.71 19.2161 70.3578 19.4531L70.2011 19.1969L70.0204 18.921L67.1021 15.2725C65.7996 13.9687 64.2968 12.8503 62.5508 11.9417C61.7277 11.5127 60.9211 11.6336 60.1393 12.0807C59.3227 12.5488 58.4999 14.0419 58.0348 14.6901L51.1453 24.5929L50.5375 25.6601L47.3873 29.978C43.5066 35.2483 39.7727 40.6468 35.9529 45.9636C33.4126 49.4998 30.8904 53.0236 27.9927 56.2941C27.872 56.4175 27.8729 56.6169 27.9973 56.7389C28.1218 56.8608 28.3201 56.8588 28.4415 56.7335C29.1084 56.1274 29.7669 55.5139 30.415 54.8921C29.7633 56.3066 30.8937 57.2049 31.3101 57.4866C31.4213 57.5607 31.5652 57.643 31.74 57.7091C31.2249 58.6379 31.6022 59.0824 33.7644 58.0594C34.8826 57.5299 36.0178 56.7777 37.1583 55.8627L37.4304 55.7366C38.7626 55.1103 40.2642 54.837 41.6617 54.3703C41.496 54.7549 41.4049 55.0672 41.3837 55.2775C41.257 56.5502 41.7481 57.2517 42.1309 57.6341C42.7078 58.2097 43.4503 58.5847 44.4414 58.4329C44.7989 58.3777 45.3344 58.2377 45.8954 57.8227L46.0607 57.6883C46.2081 57.7912 46.3952 57.8898 46.614 57.964C46.6458 58.1472 46.6945 58.309 46.7432 58.4473C46.922 58.9537 47.4721 60.2233 49.1007 60.2078L49.0714 60.398L47.7643 74.4837L48.1998 105.654C48.1391 106.093 47.7458 106.961 47.6808 107.388C47.5818 108.035 47.7046 108.536 47.8473 108.853C48.2097 109.651 48.8431 110.499 50.0504 110.315C49.9424 110.981 50.1389 111.517 50.4096 111.917C50.0314 115.013 49.8219 118.148 49.4446 121.205L48.8678 125.092C48.8049 125.437 48.6892 126.277 48.6205 126.797L48.3991 128.053C48.4417 129.4 49.1288 129.928 49.2881 130.082C49.5125 130.302 50.0833 130.62 50.7604 130.759C50.8781 131.071 51.0373 131.255 51.1012 131.341C51.5718 131.99 53.8236 133.383 55.1227 130.874L55.3008 130.445ZM61.1588 17.4682L61.3664 17.2043L61.2953 17.0597L61.2765 16.9969L60.9339 17.5052L61.0156 17.6452L61.1588 17.4682ZM69.6013 25.7208C69.7997 25.5047 69.9786 25.3284 70.1201 25.2214L69.9357 24.9847C69.2943 24.1942 68.5726 23.4911 67.8026 22.821L67.569 23.225L67.2711 23.7159C68.3783 23.3876 69.1609 24.345 69.4601 25.0317C69.5132 25.1524 69.598 25.3792 69.6013 25.7208ZM63.0895 21.4967L63.1222 21.5112L63.2001 21.3823L63.1874 21.0778L63.179 21.0939L62.9912 21.4659L63.0895 21.4967ZM72.8977 29.2597L72.8784 29.2396L72.8537 29.2988L72.8977 29.2597ZM76.5305 33.6066L77.9858 32.5003L77.4549 31.8565C77.1871 32.3866 76.8988 32.9175 76.6103 33.4548L76.5305 33.6066ZM81.1861 38.5071L82.4104 37.519L81.7027 36.7612L81.2064 36.216L81.1197 36.3502C79.9167 38.1662 78.1837 39.9594 77.0297 41.3016L75.8311 42.7083L81.1861 38.5071ZM85.1961 41.5775C85.3422 41.5771 85.4521 41.5951 85.5277 41.6087L85.7681 41.6675L86.2791 41.4498L86.3979 41.4027L86.0875 41.1376L85.7213 40.8001C85.5528 41.0617 85.3764 41.3204 85.1961 41.5775ZM85.8269 46.4499C86.834 46.1608 87.8076 45.8891 88.7163 45.6228C89.171 45.4887 90.0072 45.1649 90.8977 44.8874L90.7823 44.8009C90.0311 44.6388 89.2569 44.6564 88.4724 44.974C87.7166 45.2811 86.9818 45.6217 86.2632 45.9964L86.1464 46.1213L85.8269 46.4499ZM44.5531 44.2975L46.6395 41.5935L46.901 41.2108L48.0598 39.4937C47.5518 40.1427 47.0301 40.7802 46.4962 41.4087C45.8273 42.1981 45.1044 42.9285 44.3815 43.659L43.5837 44.742L40.6671 48.549L44.5531 44.2975ZM75.1006 71.5665L75.3676 71.2523L75.7275 69.9565L73.7383 72.2371C73.2782 72.7651 72.8231 73.4877 72.3726 74.3704L72.3266 74.9609L75.1006 71.5665ZM52.7147 100.309C52.8777 99.8716 53.0359 99.4177 53.1912 98.9477C53.7082 97.3967 54.0217 95.6596 54.4703 93.8623C54.9458 89.6137 55.4343 85.1646 55.9702 81.6644C56.5857 77.6272 57.4933 74.7171 58.1128 74.0224L59.8829 71.888L60.2917 70.4095C59.9024 70.7267 59.5073 71.0354 59.1105 71.3369C57.1197 72.8442 55.0622 74.1423 52.9187 75.1574L52.7147 100.309ZM71.721 82.8117L71.5306 85.1668L72.5508 81.5373L72.359 81.7537C72.1587 81.9926 71.9455 82.3486 71.721 82.8117ZM77.1062 103.754C77.3832 103.514 77.6696 103.291 77.9701 103.09L78.256 100.565C78.3805 99.5357 78.5023 98.5073 78.6268 97.4778L78.8868 95.455C78.3273 98.1629 77.728 100.982 77.1062 103.754ZM60.4475 129.382C60.4693 129.461 60.5351 129.5 60.6568 129.493C60.682 129.492 60.6868 129.485 60.6737 129.478C61.0867 129.608 61.5453 129.529 62.0071 129.377C62.3193 129.079 62.6147 128.791 62.7885 128.557L67.7045 122.377C69.0652 120.672 70.4587 115.818 71.8846 109.97C72.9306 105.685 73.9449 100.878 74.8632 96.2899C73.7234 100.283 72.5152 104.291 71.3056 107.964C70.0874 111.66 68.8454 115.022 67.6605 117.739C66.5884 121.619 65.3218 124.487 64.1419 125.571L62.9057 126.638C62.5082 127.173 62.0951 127.648 61.6645 128.057C61.2732 128.427 60.8898 128.723 60.5172 128.954C60.4499 129.132 60.4164 129.28 60.445 129.376L60.6039 129.443C60.6268 129.454 60.6489 129.466 60.6737 129.478C60.597 129.455 60.5218 129.423 60.4475 129.382L60.445 129.376L60.4025 129.358L60.4475 129.382ZM74.7224 118.841L76.2588 117.271C76.1331 117.17 76.6345 116.889 76.6868 116.833L76.2588 117.271C76.2717 117.284 76.2933 117.293 76.3222 117.299C77.1549 117.477 76.6797 114.71 76.9296 112.458C76.1187 114.448 75.4234 116.649 74.7224 118.841Z"/>
<path fill-rule="evenodd" clip-rule="evenodd" d="M53.5647 98.2522C53.6535 98.2266 53.6892 97.9819 53.7109 97.7153C54.494 94.8208 54.9662 91.8657 55.1715 88.8712L55.2657 87.2297C55.7254 83.1897 56.3241 79.1028 56.5251 75.0147C56.6172 73.1498 57.0863 71.2097 56.5048 69.4525C56.4057 69.1521 56.2539 69.0828 56.073 68.8226C56.0791 68.6496 55.9409 68.5049 55.7677 68.4987C55.719 68.4968 55.6736 68.5057 55.6337 68.5261C55.645 68.078 55.6635 67.6302 55.6981 67.179C55.7899 66.714 55.4859 66.2626 55.0208 66.172C54.5556 66.0814 54.1047 66.3846 54.0137 66.8476C53.4076 68.8947 52.9063 70.9459 52.5999 73.0637C52.0064 77.1762 51.9205 81.3718 51.6667 85.5276C51.4637 88.8428 51.238 92.1399 50.572 95.3652L50.3486 96.2567C50.2633 96.5868 50.069 97.4015 50.0227 97.6351C49.909 98.2103 50.08 98.5687 50.1003 98.6262C50.1618 98.8034 52.7826 100.837 53.5201 98.3964L53.5647 98.2522Z"/>
</svg>
