<?xml version="1.0" standalone="no"?>
<!DOCTYPE svg PUBLIC "-//W3C//DTD SVG 20010904//EN"
 "http://www.w3.org/TR/2001/REC-SVG-20010904/DTD/svg10.dtd">
<svg version="1.0" xmlns="http://www.w3.org/2000/svg"
 width="135.000000pt" height="150.000000pt" viewBox="0 0 135.000000 150.000000"
 preserveAspectRatio="xMidYMid meet">

<g transform="translate(0.000000,150.000000) scale(0.100000,-0.100000)"
 stroke="none">
<path d="M1224 1340 c-11 -4 -29 -21 -39 -37 -10 -15 -81 -92 -157 -169 -77
-78 -135 -145 -130 -148 14 -9 145 87 232 170 42 41 81 74 85 74 20 0 -191
-320 -289 -438 -230 -274 -486 -458 -806 -578 -129 -48 -113 -59 26 -18 245
70 479 215 693 426 157 157 284 335 347 490 15 37 31 65 36 62 4 -3 8 -58 8
-122 0 -122 7 -149 34 -139 14 6 16 32 16 201 0 170 -2 196 -17 214 -13 15
-23 18 -39 12z"/>
</g>
</svg>
