<?xml version="1.0" standalone="no"?>
<!DOCTYPE svg PUBLIC "-//W3C//DTD SVG 20010904//EN"
 "http://www.w3.org/TR/2001/REC-SVG-20010904/DTD/svg10.dtd">
<svg version="1.0" xmlns="http://www.w3.org/2000/svg"
 width="95.000000pt" height="166.000000pt" viewBox="0 0 95.000000 166.000000"
 preserveAspectRatio="xMidYMid meet">

<g transform="translate(0.000000,166.000000) scale(0.100000,-0.100000)"
 stroke="none">
<path d="M703 1591 c-231 -174 -395 -431 -472 -739 -30 -120 -43 -213 -50
-361 l-6 -136 -44 155 c-48 171 -68 205 -103 173 -16 -14 -18 -25 -13 -68 16
-118 49 -268 85 -380 21 -66 41 -133 45 -150 17 -76 71 -87 112 -22 66 105
266 547 261 576 -4 17 -49 -57 -168 -274 -45 -82 -84 -152 -87 -155 -11 -10 7
337 22 440 58 385 194 676 433 923 42 42 73 77 69 77 -3 0 -41 -27 -84 -59z"/>
</g>
</svg>
