<?xml version="1.0" standalone="no"?>
<!DOCTYPE svg PUBLIC "-//W3C//DTD SVG 20010904//EN"
 "http://www.w3.org/TR/2001/REC-SVG-20010904/DTD/svg10.dtd">
<svg version="1.0" xmlns="http://www.w3.org/2000/svg"
 width="343.000000pt" height="322.000000pt" viewBox="0 0 343.000000 322.000000"
 preserveAspectRatio="xMidYMid meet">

<g transform="translate(0.000000,322.000000) scale(0.100000,-0.100000)"
 stroke="none">
<path d="M2532 2444 c-46 -32 -233 -94 -417 -138 -199 -48 -235 -59 -235 -75
0 -5 28 -25 63 -45 34 -19 88 -53 120 -74 l58 -39 -45 -59 c-46 -62 -365 -422
-409 -463 -19 -17 -30 -21 -39 -14 -7 5 -71 56 -142 113 -92 73 -133 100 -142
94 -7 -5 -136 -146 -285 -314 -150 -168 -308 -343 -351 -389 -43 -46 -77 -88
-75 -95 2 -6 55 -53 117 -104 l114 -93 76 7 c41 4 82 9 92 13 23 9 161 176
318 388 74 100 137 182 140 183 3 0 47 -36 97 -79 l90 -79 104 -11 104 -11 28
33 c15 17 69 93 119 167 98 146 240 335 311 415 l44 50 54 -46 c63 -53 182
-129 202 -129 19 0 44 163 67 445 l19 220 -42 43 c-36 37 -118 102 -129 102
-2 0 -14 -7 -26 -16z m18 -51 c0 -32 -60 -596 -64 -600 -5 -6 -184 135 -196
154 -9 16 -15 13 -56 -32 -65 -72 -321 -387 -444 -547 -58 -75 -108 -137 -112
-137 -3 -1 -65 49 -138 109 -73 61 -136 110 -140 110 -5 0 -22 -16 -37 -36
-15 -20 -122 -153 -236 -296 -114 -143 -215 -274 -223 -289 -8 -16 -18 -29
-23 -29 -5 0 -42 28 -83 61 -40 34 -81 67 -91 73 -24 15 -21 28 14 62 17 16
166 185 331 376 l301 347 111 -104 c139 -130 161 -147 184 -143 28 5 446 496
487 572 18 32 18 36 3 53 -9 10 -57 43 -107 73 -49 30 -88 56 -86 59 2 2 98
27 212 56 114 29 246 68 293 88 101 42 100 42 100 20z m96 -70 c-3 -4 -6 -1
-6 6 0 7 -4 9 -10 6 -6 -4 -7 1 -3 11 6 15 7 15 15 -1 6 -9 7 -19 4 -22z m-31
-121 c-3 -3 -5 1 -5 9 0 11 -2 11 -8 1 -6 -9 -12 -5 -20 13 -8 17 -8 24 -2 20
7 -4 9 3 5 22 -5 20 0 15 14 -16 12 -24 19 -46 16 -49z m45 -23 c12 -22 20
-45 18 -50 -2 -6 -13 12 -25 40 -26 61 -21 67 7 10z m-72 -56 c11 -21 17 -44
14 -52 -3 -8 0 -11 7 -7 7 5 9 1 4 -10 -4 -11 -3 -15 5 -10 17 10 35 -33 38
-91 1 -29 0 -53 -2 -53 -2 0 -13 19 -24 43 -21 41 -21 42 -1 17 34 -41 24 -12
-23 69 -26 46 -44 88 -43 104 1 15 3 27 4 27 2 0 11 -17 21 -37z m80 -58 c-3
-3 -9 2 -12 12 -6 14 -5 15 5 6 7 -7 10 -15 7 -18z m-81 -30 c4 -4 3 -5 -3 -2
-7 4 -11 -3 -11 -18 0 -14 3 -22 8 -19 5 3 6 -3 2 -12 -5 -13 -3 -15 7 -9 9 5
11 4 6 -4 -4 -6 7 -34 24 -62 17 -28 29 -53 27 -56 -3 -2 -20 23 -38 56 -26
47 -35 57 -42 45 -6 -11 2 -32 27 -72 19 -32 39 -56 45 -55 5 1 7 -7 4 -18 -5
-19 -7 -18 -26 11 -11 17 -22 28 -25 26 -3 -3 7 -24 22 -46 27 -42 32 -55 16
-45 -5 3 -7 -7 -5 -25 3 -25 1 -29 -9 -21 -7 6 -17 7 -21 3 -5 -4 -5 -2 -1 5
4 7 -5 32 -20 55 -15 24 -27 50 -27 58 0 8 -5 21 -11 29 -9 12 -8 13 7 8 18
-7 24 8 7 18 -11 7 -10 65 1 65 3 0 6 22 5 49 -2 47 9 60 31 36z m-336 -222
l-4 -78 -9 64 c-6 44 -5 67 3 77 6 8 12 14 13 14 0 0 -1 -35 -3 -77z m56 55
c-3 -8 -6 -5 -6 6 -1 11 2 17 5 13 3 -3 4 -12 1 -19z m-90 -55 c-3 -10 -5 -4
-5 12 0 17 2 24 5 18 2 -7 2 -21 0 -30z m-8 -102 c2 -79 -5 -59 -12 34 -3 47
-2 68 3 50 4 -16 8 -54 9 -84z m78 67 c-3 -8 -6 -5 -6 6 -1 11 2 17 5 13 3 -3
4 -12 1 -19z m-104 -48 c4 -37 2 -49 -4 -35 -6 14 -7 8 -3 -22 3 -23 2 -48 -2
-55 -5 -8 -13 17 -20 62 -10 64 -9 77 4 93 8 9 16 16 17 15 1 -2 5 -28 8 -58z
m364 53 c-4 -3 0 -18 10 -32 16 -26 16 -26 -4 -8 -11 9 -23 14 -28 10 -4 -5
-2 2 4 15 6 12 15 22 18 22 3 0 3 -3 0 -7z m-398 -141 c5 -29 5 -50 1 -45 -13
15 -31 123 -23 135 5 9 9 5 11 -12 2 -14 7 -49 11 -78z m78 51 c-3 -10 -5 -4
-5 12 0 17 2 24 5 18 2 -7 2 -21 0 -30z m-98 -113 c0 -14 -9 4 -19 40 -11 36
-17 72 -13 80 6 17 32 -80 32 -120z m-27 25 c12 -52 13 -68 3 -82 -13 -18 -12
-24 -31 107 -9 64 11 46 28 -25z m-33 -25 l-1 -45 -12 45 c-13 49 -10 82 5 58
5 -7 8 -33 8 -58z m-19 -40 c12 -71 9 -100 -10 -100 -5 0 -10 19 -11 43 0 23
-4 51 -9 62 -7 16 -9 12 -10 -20 l-2 -40 -8 40 c-6 30 -4 42 6 48 8 4 14 15
14 22 0 8 4 15 9 15 5 0 15 -32 21 -70z m-56 -100 c4 -53 3 -65 -3 -41 -14 55
-23 148 -12 131 5 -8 12 -49 15 -90z m83 58 c-3 -7 -5 -2 -5 12 0 14 2 19 5
13 2 -7 2 -19 0 -25z m-106 -68 c6 -51 6 -87 1 -92 -12 -12 -37 155 -27 172
11 18 15 8 26 -80z m-50 -7 c-9 -16 -10 -16 -11 4 0 12 3 30 7 40 7 16 8 16
11 -4 2 -12 -1 -30 -7 -40z m101 17 c3 -17 1 -33 -4 -36 -4 -3 -8 11 -8 30 0
44 6 47 12 6z m-123 -57 l-2 -58 -7 50 c-7 47 -5 65 6 65 2 0 3 -26 3 -57z
m44 -33 c4 -36 3 -46 -3 -30 -8 25 -13 97 -6 89 2 -2 6 -29 9 -59z m-61 -57
c2 -40 0 -67 -4 -60 -4 7 -8 28 -9 47 0 30 -2 32 -10 15 -8 -17 -9 -17 -4 5 2
14 5 43 5 65 2 64 17 12 22 -72z m-498 71 c3 -9 5 -37 4 -62 l-1 -47 -7 55 -7
55 -2 -45 c-1 -33 -4 -41 -11 -29 -10 17 -2 89 10 89 4 0 11 -7 14 -16z m463
-6 c-3 -8 -6 -5 -6 6 -1 11 2 17 5 13 3 -3 4 -12 1 -19z m-9 -90 c5 -38 5 -68
0 -68 -4 0 -8 10 -8 23 0 12 -2 47 -5 77 -7 74 2 52 13 -32z m-521 20 c-3 -8
-6 -5 -6 6 -1 11 2 17 5 13 3 -3 4 -12 1 -19z m495 -45 c2 -24 0 -43 -4 -43
-5 0 -7 26 -7 58 1 61 6 55 11 -15z m115 35 c-3 -7 -5 -2 -5 12 0 14 2 19 5
13 2 -7 2 -19 0 -25z m-140 -15 c-3 -10 -5 -4 -5 12 0 17 2 24 5 18 2 -7 2
-21 0 -30z m120 -10 c-3 -10 -5 -4 -5 12 0 17 2 24 5 18 2 -7 2 -21 0 -30z
m-646 -68 l-9 -40 -1 46 c-1 25 2 49 7 53 12 12 13 -16 3 -59z m-31 -65 l-7
-85 -1 81 c-1 44 1 84 5 87 9 10 9 10 3 -83z m-31 -116 c-19 -23 -29 -6 -30
54 -2 55 -2 55 -13 -28 -6 -47 -16 -94 -23 -105 -10 -17 -12 -8 -13 57 0 88
10 129 21 88 6 -23 7 -22 8 8 1 19 7 35 16 38 8 4 15 14 16 23 0 12 2 12 9 -4
8 -18 9 -16 11 10 2 17 5 -5 6 -48 3 -50 0 -84 -8 -93z m71 99 c-11 -17 -11
-17 -6 0 3 10 6 24 7 30 0 9 2 9 5 0 3 -7 0 -20 -6 -30z m-176 -222 c-15 -15
-16 -10 -12 65 6 112 22 131 26 30 2 -63 0 -83 -14 -95z m-27 82 c-3 -10 -5
-4 -5 12 0 17 2 24 5 18 2 -7 2 -21 0 -30z m-27 -78 l-7 -80 -1 76 c-1 42 1
79 5 82 9 10 9 9 3 -78z m-23 8 c-3 -10 -5 -2 -5 17 0 19 2 27 5 18 2 -10 2
-26 0 -35z m52 -30 c1 -13 -3 -23 -9 -23 -5 0 -10 19 -9 43 0 32 2 37 9 22 5
-11 9 -30 9 -42z m-72 -45 c-2 -18 -4 -4 -4 32 0 36 2 50 4 33 2 -18 2 -48 0
-65z m-20 30 c-3 -7 -5 -2 -5 12 0 14 2 19 5 13 2 -7 2 -19 0 -25z m-28 -27
c-14 -30 -29 -41 -29 -21 0 15 32 62 37 56 3 -3 -1 -19 -8 -35z"/>
<path d="M1711 1314 c0 -11 3 -14 6 -6 3 7 2 16 -1 19 -3 4 -6 -2 -5 -13z"/>
<path d="M2620 2034 c0 -6 7 -19 16 -30 14 -18 14 -18 3 6 -14 31 -19 36 -19
24z"/>
<path d="M2569 1883 c14 -28 14 -36 -1 -27 -8 5 -9 2 -5 -9 4 -10 10 -24 14
-34 5 -12 3 -14 -8 -8 -8 5 -11 5 -6 -1 5 -5 14 -9 20 -9 5 0 12 -6 15 -14 3
-9 0 -11 -8 -6 -9 6 -9 3 -1 -14 14 -25 23 -28 14 -4 -4 11 -3 14 5 9 18 -11
14 5 -8 39 -11 17 -18 37 -15 46 3 8 -2 24 -11 35 -15 18 -15 18 -5 -3z"/>
<path d="M2162 1745 c0 -16 2 -22 5 -12 2 9 2 23 0 30 -3 6 -5 -1 -5 -18z"/>
<path d="M1183 1060 c0 -25 2 -35 4 -22 2 12 2 32 0 45 -2 12 -4 2 -4 -23z"/>
</g>
</svg>
