<?xml version="1.0" standalone="no"?>
<!DOCTYPE svg PUBLIC "-//W3C//DTD SVG 20010904//EN"
 "http://www.w3.org/TR/2001/REC-SVG-20010904/DTD/svg10.dtd">
<svg version="1.0" xmlns="http://www.w3.org/2000/svg"
 width="163.000000pt" height="124.000000pt" viewBox="0 0 163.000000 124.000000"
 preserveAspectRatio="xMidYMid meet">

<g transform="translate(0.000000,124.000000) scale(0.100000,-0.100000)"
 stroke="none">
<path d="M1315 1183 c-44 -121 -125 -272 -175 -326 -56 -62 -157 -132 -235
-164 -67 -28 -180 -51 -290 -58 -49 -3 -111 -8 -136 -10 l-45 -5 -13 106 c-14
123 -30 179 -51 179 -8 0 -27 -24 -42 -53 -40 -80 -102 -155 -215 -261 -57
-53 -103 -100 -103 -105 0 -5 27 -37 59 -72 56 -59 291 -348 315 -386 6 -10
19 -18 28 -18 16 0 18 14 18 150 l0 150 98 0 c256 0 486 62 683 182 112 69
252 209 310 309 51 87 118 274 103 289 -16 15 -263 140 -277 140 -8 0 -22 -21
-32 -47z m-674 -633 c28 -22 47 -40 41 -40 -11 0 -87 55 -97 69 -12 20 5 11
56 -29z m-71 -171 c0 -5 -4 -9 -10 -9 -5 0 -10 7 -10 16 0 8 5 12 10 9 6 -3
10 -10 10 -16z"/>
</g>
</svg>
