<?xml version="1.0" standalone="no"?>
<!DOCTYPE svg PUBLIC "-//W3C//DTD SVG 20010904//EN"
 "http://www.w3.org/TR/2001/REC-SVG-20010904/DTD/svg10.dtd">
<svg version="1.0" xmlns="http://www.w3.org/2000/svg"
 width="273.000000pt" height="201.000000pt" viewBox="0 0 273.000000 201.000000"
 preserveAspectRatio="xMidYMid meet">

<g transform="translate(0.000000,201.000000) scale(0.100000,-0.100000)"
 stroke="none">
<path d="M584 1898 c-52 -57 -78 -101 -110 -184 -77 -204 -70 -392 21 -579 94
-194 243 -323 445 -386 62 -20 96 -24 196 -23 l121 0 18 -50 c72 -205 289
-341 566 -353 141 -7 228 10 342 65 42 21 77 36 77 34 0 -2 -13 -21 -28 -41
-67 -85 -134 -193 -125 -202 13 -13 207 172 289 274 71 88 79 117 38 143 -24
16 -35 16 -186 0 -168 -18 -235 -34 -230 -54 1 -7 -4 -12 -10 -12 -9 -1 -8 -5
3 -13 11 -9 45 -10 120 -6 57 4 129 7 159 7 l55 0 -82 -39 c-257 -123 -551
-113 -753 25 -74 51 -110 93 -145 169 -32 68 -31 73 9 80 98 16 214 101 263
194 57 107 53 179 -15 231 -30 23 -45 27 -97 27 -52 0 -68 -5 -104 -29 -77
-54 -156 -201 -168 -312 l-6 -52 -71 -7 c-294 -27 -562 170 -656 483 -20 66
-22 89 -17 205 6 150 26 234 87 365 21 45 37 82 36 82 -2 0 -21 -19 -42 -42z
m992 -793 c27 -27 26 -51 -7 -116 -36 -72 -160 -159 -227 -159 -37 0 25 172
88 244 54 61 105 72 146 31z"/>
</g>
</svg>
