<?xml version="1.0" standalone="no"?>
<!DOCTYPE svg PUBLIC "-//W3C//DTD SVG 20010904//EN"
 "http://www.w3.org/TR/2001/REC-SVG-20010904/DTD/svg10.dtd">
<svg version="1.0" xmlns="http://www.w3.org/2000/svg"
 width="283.000000pt" height="219.000000pt" viewBox="0 0 283.000000 219.000000"
 preserveAspectRatio="xMidYMid meet">

<g transform="translate(0.000000,219.000000) scale(0.100000,-0.100000)"
 stroke="none">
<path d="M1500 1641 c-176 -38 -352 -121 -488 -228 -78 -62 -206 -203 -260
-285 -20 -32 -39 -58 -42 -58 -3 0 -36 41 -75 91 -98 127 -135 169 -151 169
-25 0 -45 -60 -65 -198 -19 -135 -50 -286 -89 -432 l-20 -75 33 -30 c94 -86
89 -84 211 -84 135 -1 345 -31 471 -67 101 -30 125 -28 125 10 0 22 -99 194
-137 238 -45 52 80 207 222 274 130 62 262 59 405 -9 96 -47 225 -177 275
-279 27 -55 43 -78 56 -78 28 0 146 47 218 86 89 49 168 111 240 190 l61 67
-5 122 c-9 199 -30 297 -74 348 -60 68 -256 166 -423 213 -129 36 -362 43
-488 15z m19 -100 c-35 -33 -65 -58 -67 -56 -3 3 -11 0 -19 -6 -7 -6 -13 -8
-13 -3 0 18 103 125 115 120 6 -2 18 0 26 4 32 20 16 -2 -42 -59z m81 44 c-13
-14 -26 -23 -28 -20 -7 7 29 45 41 45 6 0 0 -11 -13 -25z m26 -35 c-35 -33
-67 -60 -73 -60 -6 0 17 27 50 60 34 33 67 60 74 60 6 0 -17 -27 -51 -60z
m172 55 c-2 0 -21 -14 -43 -30 -30 -22 -35 -23 -21 -7 27 31 11 27 -38 -9
l-41 -31 44 39 c29 27 53 40 72 40 16 0 28 -1 27 -2z m52 1 c0 -2 -28 -22 -62
-46 -35 -24 -73 -52 -85 -63 -13 -11 -25 -18 -29 -15 -7 8 147 128 164 128 6
0 12 -2 12 -4z m45 -22 c-107 -79 -149 -105 -168 -102 -18 2 -6 14 58 60 44
31 91 56 105 57 24 0 25 0 5 -15z m-457 -59 c-28 -35 -54 -63 -56 -60 -7 7 82
124 95 125 7 0 -11 -29 -39 -65z m565 48 c17 -4 14 -23 -4 -23 -6 0 -7 5 -3
11 7 13 -67 -28 -134 -74 -71 -47 -59 -23 18 37 40 31 68 56 63 56 -15 0 -96
-56 -122 -84 -14 -14 -31 -26 -38 -26 -24 0 -3 21 74 71 76 49 80 50 146 32z
m-582 -20 c-11 -16 -34 -44 -51 -63 -29 -33 -30 -34 -14 -5 10 17 24 38 32 48
9 9 13 20 9 23 -3 3 -25 -22 -48 -55 -48 -68 -70 -82 -36 -23 37 64 53 81 75
85 12 2 25 6 28 10 19 19 23 4 5 -20z m649 3 c0 -2 -30 -21 -67 -41 -38 -20
-78 -46 -90 -58 -13 -11 -25 -18 -29 -15 -8 8 147 116 169 117 9 1 17 -1 17
-3z m-769 -74 c-23 -33 -49 -63 -58 -66 -14 -6 -14 -4 -2 12 75 101 92 122 96
118 2 -2 -14 -31 -36 -64z m393 47 c-10 -11 -28 -25 -39 -31 -11 -5 -4 4 15
21 41 36 51 40 24 10z m276 3 c-13 -9 -44 -32 -68 -50 -24 -18 -46 -32 -48
-29 -5 5 118 95 131 96 6 0 -1 -8 -15 -17z m150 4 c0 -2 -29 -22 -64 -44 -34
-23 -69 -49 -77 -59 -17 -20 -16 -20 90 49 61 40 76 46 93 37 19 -10 17 -13
-22 -30 -24 -11 -65 -35 -91 -54 -43 -31 -50 -33 -78 -22 -17 6 -31 14 -31 18
0 9 153 109 168 109 6 0 12 -2 12 -4z m-851 -37 c-13 -17 -27 -29 -30 -27 -3
1 -14 -3 -23 -11 -16 -13 -16 -12 -5 12 7 15 16 28 21 28 4 1 12 2 18 3 5 0
15 7 22 14 22 22 21 12 -3 -19z m941 -4 c0 -3 -28 -19 -62 -36 -34 -17 -74
-41 -90 -52 -15 -11 -30 -18 -33 -15 -6 6 17 22 104 75 50 30 81 41 81 28z
m29 -27 c-84 -50 -173 -97 -177 -93 -7 7 -8 6 82 63 47 30 85 48 94 44 14 -5
14 -7 1 -14z m-1076 -48 c-35 -59 -67 -96 -43 -49 33 63 63 109 71 109 4 0 -8
-27 -28 -60z m1032 -12 c-53 -27 -99 -48 -101 -46 -7 8 172 105 185 100 8 -3
-27 -26 -84 -54z m-1064 15 c-12 -20 -14 -14 -5 12 4 9 9 14 11 11 3 -2 0 -13
-6 -23z m687 -18 c107 -27 248 -91 344 -156 74 -50 205 -174 254 -241 l34 -46
-62 -60 c-114 -109 -193 -161 -345 -226 l-82 -35 -15 53 c-34 115 -156 253
-279 314 -206 104 -413 76 -579 -77 -89 -82 -137 -177 -123 -241 4 -16 36 -71
71 -121 36 -50 62 -94 59 -97 -3 -3 -29 2 -58 11 -101 31 -357 69 -554 81 -13
0 -23 2 -23 3 0 1 14 39 31 85 48 130 99 341 99 410 l0 61 79 -76 c70 -69 111
-94 111 -68 0 5 33 47 74 93 172 196 388 323 611 358 89 13 243 2 353 -25z
m482 25 c-8 -5 -19 -10 -25 -10 -5 0 -3 5 5 10 8 5 20 10 25 10 6 0 3 -5 -5
-10z m-1202 -25 c-6 -14 -13 -23 -15 -21 -5 5 15 46 22 46 3 0 -1 -11 -7 -25z
m1282 -15 c0 -6 -24 -20 -117 -69 -53 -29 -65 -32 -79 -20 -14 11 -5 18 71 57
48 24 85 46 82 48 -3 3 -46 -15 -96 -40 -50 -26 -91 -42 -91 -38 0 5 39 29 86
54 85 45 87 45 115 29 16 -9 29 -18 29 -21z m-1332 -42 c-29 -71 -42 -84 -22
-23 9 28 17 56 20 63 2 6 8 12 13 12 5 0 0 -24 -11 -52z m1132 27 c0 -2 -10
-9 -22 -15 -22 -11 -22 -10 -4 4 21 17 26 19 26 11z m220 -17 c0 -7 -37 -32
-82 -56 -110 -58 -125 -39 -16 21 91 50 98 53 98 35z m-1387 -18 c-3 -12 -8
-19 -11 -16 -5 6 5 36 12 36 2 0 2 -9 -1 -20z m-45 -60 c-6 -25 -16 -51 -23
-59 -11 -11 -11 -4 -3 35 9 44 26 79 34 71 2 -1 -2 -23 -8 -47z m1447 40 c3
-6 -15 -19 -42 -30 -26 -11 -61 -27 -77 -35 -59 -32 -35 -6 31 34 74 44 79 46
88 31z m9 -35 c4 -11 -12 -23 -61 -45 -74 -34 -73 -33 -73 -21 0 7 82 58 126
80 1 1 4 -6 8 -14z m-1500 -50 c-8 -27 -18 -53 -23 -58 -10 -10 10 82 23 101
15 24 15 7 0 -43z m1506 15 c0 -11 -100 -64 -107 -56 -4 3 94 66 105 66 1 0 2
-4 2 -10z m-1551 -52 c-1 -31 -1 -31 -8 -8 -5 14 -6 28 -4 33 9 15 13 6 12
-25z m1561 14 c0 -9 -90 -55 -97 -49 -4 5 77 56 90 57 4 0 7 -4 7 -8z m-1593
-79 c-2 -16 -4 -5 -4 22 0 28 2 40 4 28 2 -13 2 -35 0 -50z m1589 39 c-6 -11
-66 -34 -66 -26 0 7 64 44 68 39 2 -2 1 -8 -2 -13z m-1952 -37 c5 -22 4 -26
-4 -15 -5 8 -10 24 -10 34 0 26 6 18 14 -19z m1956 -14 c0 -5 -10 -11 -22 -14
-22 -6 -22 -6 -4 8 23 17 26 18 26 6z m-1951 -63 c11 -34 19 -63 17 -65 -4 -4
-46 104 -46 118 0 22 10 5 29 -53z m318 5 c-3 -10 -5 -2 -5 17 0 19 2 27 5 18
2 -10 2 -26 0 -35z m1643 27 c0 -5 -7 -10 -16 -10 -8 0 -12 5 -9 10 3 6 10 10
16 10 5 0 9 -4 9 -10z m-1916 -50 c5 -17 4 -20 -2 -10 -5 8 -13 26 -16 40 -5
17 -4 20 2 10 5 -8 13 -26 16 -40z m223 18 c-3 -8 -6 -5 -6 6 -1 11 2 17 5 13
3 -3 4 -12 1 -19z m30 -25 c-3 -10 -5 -2 -5 17 0 19 2 27 5 18 2 -10 2 -26 0
-35z m-319 2 c-3 -3 -9 2 -12 12 -6 14 -5 15 5 6 7 -7 10 -15 7 -18z m2 -60
c0 -5 -5 -3 -10 5 -5 8 -10 20 -10 25 0 6 5 3 10 -5 5 -8 10 -19 10 -25z m36
-92 c-5 -5 -36 62 -36 76 1 3 10 -11 21 -32 11 -22 18 -41 15 -44z m-20 -60
c-6 -6 -56 103 -55 119 0 7 14 -16 30 -51 16 -35 28 -66 25 -68z m-7 -48 c0
-5 -8 5 -17 23 -10 18 -21 30 -24 27 -4 -4 -12 3 -18 15 -9 16 -9 20 -1 15 8
-5 10 2 6 22 -4 16 6 3 24 -32 17 -33 30 -64 30 -70z m-86 -75 c3 -11 1 -18
-4 -14 -5 3 -9 12 -9 20 0 20 7 17 13 -6z m-8 -60 c8 -16 15 -33 15 -37 -1
-13 -40 41 -40 55 0 20 9 14 25 -18z"/>
<path d="M1492 1547 c-45 -46 -59 -76 -16 -36 26 24 69 79 62 79 -2 0 -23 -19
-46 -43z"/>
<path d="M1237 1493 c-4 -3 -7 -11 -7 -17 0 -6 5 -5 12 2 6 6 9 14 7 17 -3 3
-9 2 -12 -2z"/>
</g>
</svg>
