<svg width="115" height="181" viewBox="0 0 115 181" fill="none" xmlns="http://www.w3.org/2000/svg">
<path fill-rule="evenodd" clip-rule="evenodd" d="M70.0224 173.442C69.9348 173.432 70.2741 173.296 70.2874 172.904C70.3119 172.188 70.5337 171.107 70.5761 169.602C70.6776 166.007 70.3037 160.453 70.1505 154.698C69.8817 144.783 69.4902 134.295 69.4449 132.279C69.1524 120.386 68.6034 108.497 67.9419 96.6135C67.6764 91.8686 67.4465 87.1188 67.1029 82.3774C66.5862 75.262 65.8821 68.1709 65.3362 61.0581C65.3178 60.66 64.9799 60.3464 64.5824 60.3649C64.1797 60.3803 63.872 60.719 63.8855 61.1176C63.9415 68.2591 63.9474 75.3909 64.1814 82.5286C64.7259 99.1441 65.8443 115.737 66.1415 132.351C66.2233 135.16 66.6498 154.403 67.6186 165.657C67.7891 167.61 67.8628 169.347 68.2043 170.665C68.838 173.104 69.8698 174.17 70.1344 174.041C70.3004 174.013 70.4085 173.853 70.3786 173.686C70.3473 173.523 70.1884 173.414 70.0224 173.442Z"/>
<path fill-rule="evenodd" clip-rule="evenodd" d="M10.8267 57.0727C11.0416 56.6496 11.2181 56.289 11.3278 56.1469C15.99 50.1446 31.9497 24.2643 38.7651 13.5387C39.5187 12.3506 40.1572 11.3533 40.6559 10.5974L41.0477 10.9274C44.5294 13.986 51.3636 21.0698 58.7268 28.928C68.7598 39.6263 79.761 51.7514 84.6941 57.2081L73.2749 57.8653L65.6969 58.5708C65.2375 58.6467 64.5201 59.7119 64.0516 59.2407C63.4676 58.6516 63.1224 59.7076 63.3769 60.3608C63.3167 60.311 63.2389 60.2842 63.1546 60.2919C62.9874 60.3072 62.8635 60.4542 62.879 60.6241C62.5295 61.329 63.0586 61.4073 63.6245 61.6197C64.1585 61.8225 65.2817 61.4378 65.9065 61.6145L73.3836 61.5946L88.8786 60.7772C89.6078 60.7355 90.2449 60.2773 90.5238 59.6057C90.8022 58.9288 90.6675 58.154 90.1812 57.6131C90.1812 57.6131 66.2655 30.7266 51.9411 15.8819C47.7691 11.5549 44.3866 8.23924 42.608 6.84194C41.4203 5.91356 40.4586 5.68564 40.0604 5.69706C39.9266 5.70038 38.9352 5.80888 38.0875 7.00553C37.5842 7.71018 36.5991 9.22992 35.268 11.3132C28.488 21.9429 12.6173 47.5973 7.97436 53.5425C7.55708 54.0786 5.84964 55.8037 5.13561 57.1023C4.61295 58.0426 4.50795 58.9339 4.63601 59.5648C4.654 59.6363 4.99909 61.1736 6.79006 61.274C7.07984 61.2939 7.6823 61.3155 8.5601 61.3423C11.1117 61.4231 16.0562 62.0311 22.298 61.6887C23.4279 61.6282 24.5421 61.3942 25.7413 61.2327C26.6316 61.2531 27.3705 60.5483 27.3905 59.6576C27.4104 58.7669 26.7032 58.0284 25.8127 58.0063C24.6204 57.7959 23.5196 57.5146 22.3949 57.3997C17.6232 56.9276 13.5916 57.034 10.8267 57.0727Z"/>
<path fill-rule="evenodd" clip-rule="evenodd" d="M25.9679 59.2811C26.1187 59.3012 26.111 59.45 26.111 59.45C26.111 59.45 25.9299 59.6701 25.8709 59.5613C25.7804 59.3946 25.5285 59.664 25.5295 59.4604C25.5276 59.3499 24.8331 59.3242 25.0715 59.4434C25.4498 59.6265 24.6161 60.315 24.4247 60.9055C24.2018 61.5809 24.1442 62.293 24.1003 62.7432L23.4698 69.5352L22.119 89.9366C21.2983 106.813 19.0875 134.073 18.487 155.558C18.3905 159.029 18.3269 162.34 18.4599 165.441C18.5595 167.8 18.8484 169.975 19.0414 172.049C19.0241 172.557 19.4213 172.983 19.9285 173.001C20.4341 173.019 20.8609 172.623 20.8782 172.115C21.2142 170.064 21.6752 167.93 21.9783 165.59C22.3818 162.525 22.6369 159.231 22.8922 155.779C24.4843 134.349 25.832 107.044 26.7018 90.1672L27.3493 69.7158L27.324 62.9088C27.2334 62.08 27.5734 60.2873 27.209 59.4871C26.395 57.6892 25.7171 57.1104 25.5569 58.8296C25.4331 58.9427 25.4249 59.1398 25.5407 59.2613C25.6537 59.3866 25.8473 59.3939 25.9679 59.2811Z"/>
<path fill-rule="evenodd" clip-rule="evenodd" d="M69.6561 173.477C69.142 172.955 69.6894 172.696 68.5957 172.098C68.053 171.799 67.2125 171.876 66.2623 171.792C59.7247 171.224 46.2063 170.326 34.9797 169.834C31.0567 169.661 27.41 169.539 24.4349 169.675C23.6124 169.717 22.8444 169.728 22.1486 169.885C21.2192 170.098 20.5745 170.437 19.8725 170.723C19.3883 170.742 19.0154 171.155 19.0365 171.636C19.0579 172.12 19.4663 172.49 19.949 172.472C20.757 172.684 21.528 173.063 22.5987 173.267C24.3471 173.6 26.4626 173.688 28.7908 173.866C40.0019 174.725 56.2514 176.075 64.6396 175.963C66.3934 175.944 67.9402 176.147 68.773 175.61C69.895 174.89 69.4007 174.8 69.7455 174.079C69.9115 174.051 70.0282 173.896 70.0013 173.727C69.9785 173.567 69.8221 173.449 69.6561 173.477Z"/>
<path fill-rule="evenodd" clip-rule="evenodd" d="M83.8042 164.273L73.2427 170.283L69.718 172.383C69.3405 172.635 68.38 173.48 68.0611 173.436C67.9559 173.365 67.8917 173.295 67.9897 173.409C68.008 173.425 68.0316 173.439 68.0611 173.436C68.1476 173.505 68.2601 173.575 68.3048 173.533C68.7962 172.999 68.3916 174.015 68.8589 174.011C69.2371 174.01 68.5412 174.265 68.9213 174.55C69.0673 174.66 69.071 174.659 68.626 174.866C68.5651 174.893 68.5212 174.922 68.4941 174.951C68.3036 175.11 68.6749 175.156 68.379 174.528C68.5095 174.427 68.5346 174.233 68.4331 174.102C68.3313 173.966 68.1372 173.941 68.0035 174.048C66.6887 173.076 67.6328 174.171 67.2521 174.245C66.6366 174.361 67.6145 174.48 67.3833 174.926C67.2504 175.184 67.6784 174.853 67.6981 175.211C67.7104 175.448 67.7582 175.175 68.3595 175.415C68.7445 175.571 70.2989 174.906 70.9112 174.675L74.6183 172.613L85.6646 166.75C85.9114 166.617 86.5245 166.068 86.5332 164.982C86.5364 163.897 86.0913 161.169 86.0704 160.941L85.4867 146.187L82.9361 96.0741C82.6245 87.5138 82.7364 78.9595 82.4185 70.4122C82.2938 67.0931 82.4994 63.7187 81.8068 60.464C81.7251 60.0806 81.563 59.7545 81.4323 59.3845C81.3813 58.8269 80.8929 58.4164 80.3364 58.4637C79.784 58.5143 79.3686 59.0039 79.4195 59.5597L79.9342 96.1702L82.4047 146.303L82.9958 161.179C83.0077 161.33 83.7571 163.208 83.8042 164.273ZM83.8024 164.314C83.4401 164.59 83.0017 164.991 83.4426 164.984C83.7241 164.985 83.8183 164.713 83.8024 164.314Z"/>
<path fill-rule="evenodd" clip-rule="evenodd" d="M79.9398 168.015L81.5353 166.39C82.253 165.629 83.7806 164.446 84.7217 163.2C85.2027 162.562 85.5108 161.906 85.5891 161.341C85.6177 161.202 85.5286 161.067 85.3903 161.04C85.2579 161.013 85.1222 161.101 85.0935 161.239C84.9339 161.861 84.3559 162.515 83.7274 163.197C82.7737 164.22 81.6431 165.266 81.0392 165.938L79.6823 167.459C79.5314 167.532 79.4634 167.713 79.5342 167.863C79.6016 168.019 79.7827 168.084 79.9398 168.015Z"/>
<path fill-rule="evenodd" clip-rule="evenodd" d="M83.9928 159.258C83.8785 159.277 83.744 159.335 83.6112 159.455C83.006 160.004 82.0909 161.212 81.9917 161.311L77.8901 166.096L76.5095 167.961C76.4742 168.026 76.4623 168.176 76.439 168.308L76.3116 168.401L76.215 168.485L76.2014 168.487C76.1978 168.491 76.1924 168.497 76.1888 168.501L76.1931 168.504L76.1382 168.549C75.9511 168.764 76.0254 168.995 76.1019 169.186C76.2044 169.424 76.4118 169.431 76.5717 169.458C76.7811 169.488 77.2524 168.937 77.5045 168.703L79.0293 167.102L83.0335 162.134C83.1127 162.01 84.0741 160.727 84.3264 159.913C84.5671 159.145 84.2584 158.783 84.0481 159.13C84.0073 159.158 83.9884 159.209 83.9928 159.258ZM76.1972 168.506C76.1989 168.525 76.2222 168.543 76.2798 168.57C76.3416 168.6 76.3771 168.557 76.4016 168.481C76.3199 168.47 76.2529 168.469 76.217 168.485L76.1972 168.506Z"/>
<path fill-rule="evenodd" clip-rule="evenodd" d="M73.3406 169.808C73.7309 169.405 74.6016 168.66 74.9795 168.314L77.4156 165.615C79.2178 163.41 81.4948 161.381 83.1545 158.974C83.9003 157.895 84.4281 156.736 84.9223 155.554C84.9766 155.458 84.9438 155.337 84.8482 155.281C84.7527 155.228 84.6294 155.256 84.5754 155.355L76.3369 164.733L74.0583 167.476C73.6705 167.992 72.6629 169.222 72.5038 169.591C72.2185 170.26 72.2368 170.847 73.1651 170.128C73.2831 170.062 73.3482 169.934 73.3406 169.808Z"/>
<path fill-rule="evenodd" clip-rule="evenodd" d="M70.3573 171.16C70.4623 171.124 70.5717 171.05 70.6791 170.933C71.5809 169.924 73.6814 167.386 74.3231 166.698C76.0761 164.493 78.2035 162.55 79.955 160.308C81.1617 158.759 82.1043 157.077 82.9792 155.343C83.0587 155.223 83.0266 155.066 82.9052 154.986C82.7857 154.907 82.6274 154.94 82.5477 155.058C80.7776 157.27 78.5633 159.059 76.5771 161.124C75.2341 162.518 74.0684 164.064 72.9272 165.598C72.4604 166.283 70.9733 168.467 70.2432 169.869C69.9749 170.379 69.6078 170.885 69.7747 170.946L69.822 170.968C69.7652 171.035 69.8743 171.152 70.0583 171.184C70.1316 171.339 70.083 171.496 70.083 171.496C70.083 171.496 70.1982 171.486 70.2693 171.381C70.3307 171.321 70.3588 171.241 70.3573 171.16Z"/>
<path fill-rule="evenodd" clip-rule="evenodd" d="M68.4317 168.963L68.4656 168.947C69.3453 168.493 70.2585 167.802 71.1103 166.957C72.269 165.808 73.2944 164.407 74.267 163.442C76.2225 161.384 78.5991 159.153 80.5142 156.655C81.8277 154.939 82.8681 153.099 83.6933 151.317C83.7511 151.218 83.7173 151.085 83.6176 151.028C83.5138 150.97 83.3812 151.004 83.3234 151.104L73.0805 162.306L68.0595 168.337L68.0299 168.359C68.2777 168.076 68.5429 166.37 69.1385 166.296C68.8408 166.808 67.2901 169.89 68.4317 168.963Z"/>
<path fill-rule="evenodd" clip-rule="evenodd" d="M69.1111 164.995C69.4048 164.676 69.7262 164.36 69.9153 164.167L73.3454 160.65L81.1618 151.909C81.5508 151.405 82.355 150.513 82.9644 149.6C83.4203 148.924 83.7549 148.256 83.7974 147.753C83.8093 147.689 83.7675 147.62 83.7034 147.608C83.6393 147.595 83.5705 147.639 83.5585 147.703L80.2595 151.082L72.173 159.561L69.0686 163.455C68.6214 164.074 67.6318 165.825 67.7957 166.002C67.8761 166.085 68.3698 166.187 69.1585 165.513C69.2928 165.411 69.3206 165.219 69.2178 165.085C69.1902 165.043 69.1522 165.014 69.1111 164.995Z"/>
<path fill-rule="evenodd" clip-rule="evenodd" d="M64.7269 59.6907C63.7636 59.5318 63.3395 60.1458 63.2422 61.1485C63.11 62.4147 63.5487 64.3924 63.5249 65.5091C63.5229 65.7243 63.6948 65.9028 63.9116 65.9056C64.1222 65.9052 64.3013 65.7342 64.3033 65.519C64.3002 64.4086 63.8172 62.4632 63.913 61.2079C63.9569 60.6551 64.0983 60.2424 64.6305 60.3144C64.8039 60.3381 64.9645 60.2216 64.9918 60.0475C65.0174 59.8754 64.9005 59.7164 64.7269 59.6907Z"/>
<path fill-rule="evenodd" clip-rule="evenodd" d="M63.8484 59.8487C63.1812 61.5504 62.9105 63.6911 63.0882 65.8284C63.2631 67.934 63.8786 69.9936 64.3944 71.6512C64.4273 71.7746 64.5522 71.848 64.6751 71.8142C64.7983 71.784 64.8716 71.6604 64.8389 71.5389C64.4111 69.5734 64.1291 67.0288 64.0601 64.5949C64.0156 62.9677 64.0188 61.3889 64.4262 60.0542C64.4842 59.8924 64.3956 59.7194 64.2369 59.6623C64.0783 59.607 63.9068 59.6906 63.8484 59.8487Z"/>
<path fill-rule="evenodd" clip-rule="evenodd" d="M66.1376 58.9124L64.6305 59.1351C63.5296 59.5809 63.1564 60.0205 63.0444 60.5606C62.9163 61.1834 63.2273 62.0224 63.2332 63.4646L64.1095 78.9426C64.1027 79.1054 64.2219 79.2473 64.386 79.2549C64.5446 79.2668 64.6871 79.1462 64.6978 78.983C64.8465 77.4231 64.8881 75.8559 64.8169 74.2802C64.6528 70.6782 64.04 67.0568 63.9742 63.4534C63.9427 62.0758 63.6008 61.2848 63.7114 60.6863C63.7787 60.303 64.0986 60.0569 64.8734 59.7258L65.8684 59.4557C66.0191 59.5324 66.2024 59.4704 66.2792 59.32C66.3484 59.1723 66.2884 58.9891 66.1376 58.9124Z"/>
<path fill-rule="evenodd" clip-rule="evenodd" d="M67.7708 59.7739C68.262 58.9029 68.2327 58.5397 68.0158 58.5784C67.9937 58.2297 67.7273 58.4163 67.1772 59.5905L67.1638 59.637L66.8032 60.4074L65.9097 62.0449C65.3076 63.0806 64.7032 64.092 64.2411 65.1734C63.773 66.2534 63.4548 67.38 63.087 68.5244C63.0438 68.6321 63.0942 68.7538 63.2025 68.7967C63.309 68.8417 63.4302 68.7892 63.4754 68.6813L66.6647 62.4662L67.4436 60.6732C67.5155 60.4686 67.7119 59.9697 67.7578 59.826L67.7708 59.7739Z"/>
<path fill-rule="evenodd" clip-rule="evenodd" d="M65.1296 69.3449C65.2192 69.2914 65.3106 69.2152 65.3814 69.1069C65.772 68.513 66.2556 67.5164 66.3083 67.4041C66.5978 66.5874 68.8148 62.4829 69.4612 60.9848C69.8828 59.9977 69.5399 59.6915 68.9672 60.1456C68.8333 60.2521 68.8093 60.4429 68.9157 60.5727L68.9796 60.6253L68.909 60.7355C68.1866 62.2216 65.4344 66.0922 65.0586 66.8904C65.0182 67.0298 64.4213 68.4234 64.4293 69.0921C64.4356 69.5045 64.5378 69.697 64.6587 69.7274C64.7509 69.7454 64.9563 69.8397 65.106 69.5602C65.1658 69.5038 65.1753 69.4143 65.1296 69.3449Z"/>
<path fill-rule="evenodd" clip-rule="evenodd" d="M69.8596 61.1972C69.2392 61.452 68.3515 64.0131 68.194 64.2708C67.4665 65.5499 66.6831 66.7775 66.0898 68.1029C65.4939 69.4435 65.1079 70.8404 64.6771 72.264C64.6176 72.409 64.6876 72.5723 64.827 72.6331C64.9721 72.6915 65.1371 72.6236 65.199 72.4822L69.1825 64.7914C69.3191 64.4772 70.4951 62.0331 70.6457 61.3762C70.8406 60.5588 70.7241 60.1244 69.9323 61.0454C69.8951 61.0903 69.8683 61.1418 69.8596 61.1972Z"/>
<path fill-rule="evenodd" clip-rule="evenodd" d="M73.2928 60.6521C73.2157 60.7987 73.1302 60.9404 73.0351 61.0848C72.3363 62.1822 71.2896 63.285 70.7139 64.1146L65.6955 72.2414C65.5319 72.5619 65.6569 72.9597 65.9828 73.1222C66.3033 73.2909 66.7012 73.164 66.8644 72.8398L71.4375 64.601C71.9829 63.7421 72.9839 62.5907 73.6481 61.4588C73.9752 60.9027 74.2258 60.3498 74.3168 59.838C74.3936 59.4085 74.148 59.3273 73.9221 59.3536C73.7347 59.3707 73.1019 59.9642 72.8599 60.2239C72.7414 60.3479 72.7452 60.54 72.8679 60.6551C72.9906 60.7702 73.1776 60.7701 73.2928 60.6521Z"/>
<path fill-rule="evenodd" clip-rule="evenodd" d="M66.3044 75.3715L66.8525 74.7782L69.2969 71.5882L76.483 61.1643C76.5974 61.0369 76.5833 60.8402 76.4572 60.731C76.331 60.6219 76.1373 60.6339 76.0288 60.7608L68.4208 70.9838L66.1199 74.3229C66.0776 74.3984 65.5598 75.1285 65.3788 75.6033C65.2454 75.953 65.2917 76.2222 65.3749 76.2919C65.5684 76.4496 65.7349 76.4834 65.8999 76.3287C66.0613 76.1782 66.2203 75.7639 66.3366 75.5515C66.3805 75.4928 66.3689 75.409 66.3101 75.3691L66.3043 75.3696L66.3044 75.3715Z"/>
<path fill-rule="evenodd" clip-rule="evenodd" d="M66.0639 80.0771C66.1773 80.0479 66.3337 79.9714 66.4729 79.7927C66.8142 79.3485 67.1648 78.5112 67.4551 78.1565L70.7775 73.9338L77.626 63.5634C78.0066 63.0118 79.3453 61.7654 79.9765 60.8534C80.2743 60.4302 80.4147 60.0496 80.3664 59.8013C80.3372 59.6324 80.1795 59.5223 80.0148 59.5506C79.852 59.5787 79.7406 59.7378 79.7638 59.9055L76.9577 63.0795L69.7157 73.1295L66.6266 77.5779C66.3791 78.0135 65.9449 78.9264 65.8628 79.5354C65.8348 79.7681 65.8889 79.9291 65.9572 80.0303C65.9263 80.0369 65.9008 80.0582 65.8861 80.0916C65.8861 80.0916 65.9283 80.1009 65.9977 80.0851C66.0346 80.144 66.0723 80.1688 66.0723 80.1688C66.0871 80.1373 66.0799 80.1021 66.0639 80.0771Z"/>
<path fill-rule="evenodd" clip-rule="evenodd" d="M81.476 61.6841L81.5658 61.591C81.6832 61.4539 82.0679 61.0321 82.0004 60.9402L82.0147 60.9031L81.9962 60.9369L82.0004 60.9402C81.9822 60.9777 81.9608 61.0023 81.9436 61.0077L81.996 60.935L81.9913 60.926C81.9141 60.8783 81.8398 60.8418 81.7705 60.816C81.694 60.625 81.6395 60.3735 81.6395 60.3735C81.6395 60.3735 81.4744 60.3981 81.3837 60.5685L81.3302 60.6715L81.2259 60.8017C80.9564 60.9112 80.813 61.1941 80.7898 61.3489L78.0621 64.7987C76.1111 67.4004 74.0907 69.9311 72.2124 72.5734C70.9549 74.3423 69.7953 76.1702 68.6239 77.9972L66.2032 82.1996C66.1692 82.28 65.8789 82.678 65.8344 82.9876C65.7892 83.3331 65.835 83.5759 66.0952 83.5804C66.1833 83.6176 66.2877 83.576 66.3249 83.4878C66.3616 83.3939 66.3207 83.2901 66.2307 83.2531L66.9361 82.6587L69.6889 78.7088L78.9063 65.3985L81.476 61.6841Z"/>
<path fill-rule="evenodd" clip-rule="evenodd" d="M80.7138 64.9837C80.5216 65.2936 80.2547 65.6688 80.0016 66.0427L76.3795 71.4431C74.1474 74.8023 71.6494 77.9651 69.3414 81.269C67.7923 83.487 66.3603 85.7791 64.9683 88.0997C64.8149 88.3381 64.8837 88.6599 65.1241 88.8133C65.3645 88.9667 65.6849 88.8978 65.8381 88.6575C68.1035 85.3179 70.6438 82.1871 72.9812 78.9032C74.5515 76.7021 75.9897 74.4131 77.3961 72.0988L80.6513 66.4529C81.0556 65.7728 81.4827 65.0832 81.6013 64.7442C81.7864 64.2068 81.5975 63.6696 80.5991 64.4398C80.4643 64.537 80.4325 64.7285 80.5339 64.8682C80.5793 64.9338 80.6458 64.973 80.7138 64.9837Z"/>
<path fill-rule="evenodd" clip-rule="evenodd" d="M81.0678 70.6384C81.1149 70.6153 81.157 70.5812 81.1838 70.5297C81.6503 69.7327 81.5003 69.3636 80.9729 69.838C80.914 69.883 80.8526 69.9433 80.7932 70.0261L80.6093 70.2315C80.282 70.6348 79.3528 71.9249 79.2688 72.0401L76.7767 75.5041L67.602 88.4635C67.5336 88.5546 67.5551 88.6828 67.6419 88.7484C67.7326 88.8155 67.8631 88.7998 67.9296 88.7089L77.3609 75.9089L79.804 72.4041C79.8781 72.288 80.7367 71.0647 81.0678 70.6384Z"/>
<path fill-rule="evenodd" clip-rule="evenodd" d="M81.0633 74.1606C81.0546 74.6027 80.7662 75.0873 80.3853 75.5936C79.495 76.7707 78.0503 77.9778 77.4608 78.6559C74.8403 81.8356 71.6555 85.065 69.4501 88.7593C68.4718 90.3951 67.7766 92.1352 67.2186 93.8892C67.1637 94.0205 67.2272 94.177 67.3581 94.231C67.4931 94.2865 67.6487 94.2233 67.7051 94.0861C68.737 91.9607 70.1909 90.0154 71.6551 88.0315C73.8425 85.0668 76.1641 82.1049 78.321 79.3448C78.8666 78.616 80.2281 77.2958 81.0305 76.04C81.4627 75.3631 81.7449 74.7036 81.7076 74.145C81.7053 73.9699 81.5564 73.827 81.3774 73.8283C81.2012 73.8387 81.0572 73.9858 81.0633 74.1606Z"/>
<path fill-rule="evenodd" clip-rule="evenodd" d="M67.9681 96.7191C67.9345 96.394 68.1735 95.9723 68.4912 95.5077C69.2218 94.4564 70.4356 93.2856 70.848 92.7802L77.391 84.1273C77.8997 83.3397 78.6167 82.1407 79.4422 81.1581C79.9892 80.5103 80.576 79.9531 81.1827 79.6996C81.3423 79.636 81.4162 79.4538 81.3523 79.2937C81.2885 79.1336 81.1026 79.06 80.945 79.1235C80.2568 79.4109 79.5807 80.0253 78.9685 80.7564C78.1213 81.7598 77.389 82.9866 76.8684 83.7942L70.3701 92.3977C69.9541 92.9072 68.7281 94.0942 67.9892 95.1632C67.5648 95.7734 67.3112 96.3586 67.36 96.7841C67.3755 96.9543 67.5263 97.0744 67.6958 97.0551C67.8675 97.0394 67.9876 96.8889 67.9681 96.7191Z"/>
<path fill-rule="evenodd" clip-rule="evenodd" d="M67.741 100.836L70.3238 97.6748L78.1967 87.6783L80.3257 84.6775L80.9588 83.2486C81.0816 83.2147 81.1546 83.0873 81.1214 82.9602C81.092 82.8328 80.9593 82.7601 80.8364 82.794C80.6009 82.7797 80.3105 82.9401 80.0129 83.2163C79.7153 83.4924 79.5152 83.9086 79.3871 84.0787L77.1155 86.8984L69.3601 96.9954C69.0745 97.4666 68.16 98.5083 67.6116 99.4429C67.3056 99.9706 67.1066 100.464 67.133 100.839C67.1344 101.005 67.2728 101.141 67.4399 101.139C67.6072 101.139 67.7423 101.002 67.741 100.836Z"/>
<path fill-rule="evenodd" clip-rule="evenodd" d="M67.7449 103.16C67.8269 103.175 67.9097 103.154 67.9891 103.075C68.6846 102.329 70.3541 100.481 70.5961 100.221L77.5064 91.71L79.6027 88.8253L80.4758 87.4593C80.6236 87.31 80.8146 87.0964 80.8316 87.0232C80.8591 86.8717 80.7899 86.7611 80.5042 86.7797L78.86 88.2162L76.4759 90.8387L69.6096 99.4438C69.4085 99.7413 67.9892 101.785 67.4356 102.641C67.144 103.09 67.514 103.498 67.5232 103.491C67.6733 103.453 67.7665 103.311 67.7449 103.16Z"/>
<path fill-rule="evenodd" clip-rule="evenodd" d="M68.3512 103.804C68.235 103.76 68.0981 103.791 68.013 103.893C67.9652 103.952 67.693 104.183 67.677 104.288C67.6542 104.426 67.7006 104.546 67.849 104.64C68.0244 104.75 68.2796 104.721 68.5437 104.531C68.951 104.228 69.4761 103.426 69.5418 103.348L72.3491 99.9945L80.6463 90.0309C80.7162 89.9566 80.7101 89.8459 80.6372 89.7809C80.5638 89.7103 80.4522 89.7167 80.3822 89.791C78.5212 91.6113 76.64 93.4052 74.8938 95.3395C73.736 96.6278 72.6742 97.996 71.5694 99.3247L68.9531 102.894L68.3512 103.804ZM68.3289 104.377C68.2688 104.409 68.2193 104.449 68.2582 104.487C68.3401 104.565 68.3504 104.483 68.3289 104.377Z"/>
<path fill-rule="evenodd" clip-rule="evenodd" d="M69.6621 160.747C69.0814 160.446 69.034 160.015 69.2513 159.55C69.808 158.362 71.6752 157.018 72.3358 156.32C75.2002 153.052 78.5503 150.058 81.5094 146.793C82.7982 145.366 83.9986 143.878 85.087 142.326C85.2237 142.142 85.1811 141.891 85.0036 141.759C84.8202 141.626 84.5676 141.663 84.4306 141.843L71.5227 155.608C70.884 156.394 69.0595 157.968 68.5614 159.258C68.242 160.093 68.3517 160.841 69.3955 161.298C69.5457 161.369 69.729 161.307 69.8058 161.157C69.8783 161.003 69.8125 160.82 69.6621 160.747Z"/>
<path fill-rule="evenodd" clip-rule="evenodd" d="M69.175 154.882L70.0306 154.121L73.0402 150.87L82.7586 139.443C82.8854 139.301 82.8692 139.082 82.7277 138.955C82.5823 138.829 82.3633 138.845 82.2365 138.987C81.5132 139.687 80.7603 140.344 80.068 141.082C77.3339 144.01 74.9136 147.227 72.4189 150.361L69.5702 153.65L68.5646 154.902C68.5699 155.067 68.7084 155.203 68.8791 155.197C69.0462 155.195 69.1808 155.053 69.175 154.882Z"/>
<path fill-rule="evenodd" clip-rule="evenodd" d="M68.7556 150.351C69.0106 149.847 69.3373 149.394 69.7079 148.97C70.598 147.94 71.7192 147.07 72.6226 146.101L78.5677 139.455C79.7512 138.04 81.244 136.734 82.3569 135.193C82.8605 134.5 83.2455 133.76 83.5744 132.987C83.6438 132.863 83.6023 132.711 83.4837 132.64C83.3611 132.57 83.2074 132.611 83.138 132.734L77.54 138.549L71.8881 145.452C71.0433 146.481 69.9788 147.433 69.153 148.519C68.7748 149.012 68.4459 149.527 68.204 150.088C68.1336 150.244 68.1989 150.421 68.3493 150.494C68.5055 150.566 68.6827 150.501 68.7556 150.351Z"/>
<path fill-rule="evenodd" clip-rule="evenodd" d="M69.4333 145.542L71.7291 142.837L78.9815 134.214C79.8606 133.171 81.155 132.172 82.0361 130.958C82.4502 130.385 82.7272 129.777 82.9463 129.159C83.0091 129.05 82.973 128.913 82.865 128.852C82.757 128.79 82.6204 128.825 82.5576 128.934L77.959 133.3L71.0906 142.377L68.8512 145.354C68.8029 145.515 68.8915 145.688 69.0475 145.736C69.2082 145.793 69.3813 145.705 69.4333 145.542Z"/>
<path fill-rule="evenodd" clip-rule="evenodd" d="M69.7187 141.198L81.3461 128.778C81.4613 128.66 81.452 128.472 81.3355 128.36C81.2166 128.245 81.0285 128.255 80.9192 128.372C79.3038 129.972 77.6334 131.509 76.0567 133.145C73.6891 135.604 71.4717 138.198 69.2644 140.795C69.1501 140.922 69.1637 141.113 69.29 141.224C69.4127 141.339 69.6043 141.325 69.7187 141.198Z"/>
<path fill-rule="evenodd" clip-rule="evenodd" d="M69.3993 136.625C69.9496 136.637 70.4726 136.329 70.9649 135.857C71.8276 135.024 72.5729 133.638 73.1541 133.019L82.7718 122.795C82.8612 122.696 82.8576 122.549 82.7626 122.458C82.6639 122.369 82.5128 122.373 82.4271 122.47C80.4327 124.446 78.2689 126.249 76.2667 128.225C74.9172 129.548 73.6773 130.97 72.4603 132.407C71.9215 133.058 71.2708 134.488 70.4654 135.367C70.1344 135.73 69.7871 136.001 69.3966 136.014C69.2256 136.016 69.0906 136.155 69.092 136.321C69.0957 136.49 69.2281 136.625 69.3993 136.625Z"/>
<path fill-rule="evenodd" clip-rule="evenodd" d="M68.2203 134.615L71.8154 130.727L82.1915 120.057C82.3561 119.899 82.3638 119.638 82.2107 119.47C82.0519 119.306 81.7914 119.298 81.6244 119.452C79.4203 121.438 77.0988 123.389 75.0008 125.546C73.5878 126.992 72.2953 128.549 71.0776 130.129L67.6796 134.342C67.6028 134.492 67.6609 134.675 67.8116 134.752C67.9623 134.829 68.1435 134.765 68.2203 134.615Z"/>
<path fill-rule="evenodd" clip-rule="evenodd" d="M69.3843 127.883L69.4263 127.847C69.7398 127.53 70.5672 126.762 70.7758 126.524L73.5214 123.573L81.9588 114.841C82.0619 114.741 82.0649 114.58 81.9668 114.476C81.8667 114.372 81.7051 114.37 81.602 114.47C80.0707 115.806 78.4629 117.058 76.9782 118.451C75.4885 119.855 74.1328 121.389 72.809 122.949L70.2314 126.061C70.0376 126.309 69.2653 127.098 68.9759 127.421C68.5474 127.901 69.0359 128.185 69.2821 128.013C69.3304 127.982 69.3655 127.936 69.3843 127.883Z"/>
<path fill-rule="evenodd" clip-rule="evenodd" d="M67.9854 125.535L73.4471 119.759L80.5424 112.926C80.6588 112.821 80.6601 112.642 80.5553 112.529C80.4463 112.413 80.2709 112.412 80.1585 112.516L72.8298 119.165L67.5908 125.073C67.4608 125.179 67.4433 125.375 67.553 125.499C67.6613 125.629 67.8558 125.647 67.9854 125.535Z"/>
<path fill-rule="evenodd" clip-rule="evenodd" d="M67.3391 121.869L71.0492 117.862C73.271 115.618 75.5981 113.491 77.7609 111.204C79.2115 109.674 80.541 108.047 81.9484 106.476C82.0437 106.377 82.047 106.22 81.9475 106.122C81.8541 106.026 81.6906 106.024 81.5971 106.122C80.0083 107.517 78.3823 108.852 76.8671 110.32C74.6017 112.519 72.5307 114.905 70.3892 117.232L66.8077 121.569C66.7266 121.716 66.7789 121.9 66.9221 121.981C67.0694 122.064 67.2575 122.011 67.3391 121.869Z"/>
<path fill-rule="evenodd" clip-rule="evenodd" d="M67.2976 117.51C67.3937 117.183 67.6973 116.821 68.0723 116.445C68.9291 115.59 70.1661 114.717 70.6968 114.191L77.1256 107.927C78.1307 106.928 79.4044 105.961 80.4271 104.811C81.1447 104.005 81.7111 103.117 82.1145 102.19C82.1661 102.108 82.1388 102.003 82.0515 101.953C81.9665 101.906 81.8608 101.934 81.8154 102.02L76.29 107.055L70.1028 113.616C69.596 114.166 68.3995 115.093 67.5869 115.981C67.1409 116.463 66.8062 116.936 66.7099 117.347C66.6622 117.513 66.762 117.68 66.9235 117.723C67.0869 117.767 67.2533 117.671 67.2976 117.51Z"/>
<path fill-rule="evenodd" clip-rule="evenodd" d="M67.6241 114.339L78.8071 103.15C79.086 102.864 80.2287 102.035 81.0177 101.128C81.6803 100.366 82.0843 99.5743 81.8975 99.1463C81.877 99.0727 81.8018 99.025 81.7268 99.045C81.6519 99.0651 81.6096 99.1406 81.6263 99.2164C81.6552 99.425 81.4487 99.6418 81.1861 99.9129C80.2864 100.836 78.4191 101.986 78.0178 102.311C76.1134 104.152 74.2358 106.027 72.4233 107.969C70.6108 109.911 68.8643 111.908 67.1665 113.942C67.0557 114.065 67.0697 114.26 67.196 114.371C67.3219 114.478 67.5137 114.466 67.6241 114.339Z"/>
<path fill-rule="evenodd" clip-rule="evenodd" d="M82.5081 94.7519C82.0728 95.2009 81.0366 95.7087 81.0077 95.7377L78.4441 98.2691L70.4395 106.524C69.8252 107.233 68.3244 108.514 67.3128 109.722C66.7782 110.355 66.3803 110.976 66.2737 111.489C66.2396 111.655 66.3453 111.82 66.5098 111.854C66.6744 111.888 66.8362 111.785 66.8706 111.623C66.9705 111.188 67.3411 110.677 67.8105 110.149C68.8524 108.972 70.3879 107.724 71.0141 107.039L79.1706 99.0249L81.6758 96.3914C81.7166 96.3424 82.7748 95.1933 83.1205 94.6902C83.2075 94.5653 83.2618 94.4698 83.2754 94.4252C83.3399 94.2043 83.2484 94.0863 83.1564 94.0495C82.9412 93.956 82.7398 93.9707 82.5505 94.1181C82.3371 94.281 82.1399 94.6007 81.9414 94.7754C81.8786 94.8208 81.8684 94.9028 81.9097 94.9669C81.9563 95.0248 82.0384 95.04 82.0976 94.9987L82.5081 94.7519Z"/>
<path fill-rule="evenodd" clip-rule="evenodd" d="M67.0858 107.61C67.0909 107.321 67.3852 106.945 67.7543 106.525C68.5922 105.571 69.8989 104.513 70.3 104.099L81.7773 92.6845C81.9041 92.5428 81.8923 92.327 81.7549 92.2019C81.6178 92.0805 81.4016 92.0852 81.2768 92.2268L69.7249 103.557C69.3337 103.993 68.0593 105.103 67.2464 106.094C66.7737 106.673 66.4646 107.231 66.4743 107.617C66.4757 107.783 66.6141 107.919 66.7851 107.917C66.9526 107.918 67.0877 107.781 67.0858 107.61Z"/>
<path fill-rule="evenodd" clip-rule="evenodd" d="M99.8443 56.5887C97.6899 57.6407 90.0428 57.221 89.3212 57.2959L86.132 57.6858C85.708 57.9798 84.6838 58.3715 84.6416 58.6431C84.5418 59.3251 83.9267 59.2404 84.3842 59.3735C84.987 59.5486 83.9434 60.9702 85.0236 59.663C85.1877 59.7462 85.3899 59.6759 85.4699 59.5116C85.5345 59.3825 85.5073 59.2279 85.4089 59.1298C85.5297 58.9225 85.6771 58.6198 85.5697 58.851C85.4476 59.1049 85.8996 58.9136 85.7712 59.0574C85.5125 59.3453 86.1573 59.5112 85.7983 59.5779C85.597 59.6178 85.2388 60.6714 85.4766 60.1553C85.5984 59.8978 86.183 60.4441 86.438 60.5225L89.5221 60.3886C90.3823 60.3617 97.0729 60.4887 100.5 59.6398C103.34 58.9339 104.207 57.0072 103.689 55.5838C103.306 54.6104 102.241 53.0996 100.748 51.3781C96.9915 47.0507 90.449 40.9451 88.3823 38.4336L71.9523 17.9021C70.9655 16.6055 69.5856 13.8009 68.1122 11.7671C67.2314 10.55 66.2922 9.59004 65.3962 9.14366L40.1225 5.44019C39.4964 5.25472 38.8416 5.61266 38.6551 6.24193C38.4738 6.86715 38.832 7.52333 39.4558 7.70366C40.6149 8.05279 42.4183 8.41975 44.547 8.77837C51.8139 10.0111 63.0844 11.1417 64.0981 11.6737C64.6655 11.9699 65.1924 12.6588 65.7413 13.4457C67.1916 15.5335 68.5341 18.3968 69.5051 19.7252L85.6064 40.6741C87.4 42.9303 92.6171 48.0291 96.3793 52.2329C97.9597 53.991 99.2883 55.5419 99.8443 56.5887ZM99.9452 56.5313C100.365 56.2966 100.526 55.9927 100.302 55.6009C100.034 55.1381 99.9068 55.928 99.9452 56.5313Z"/>
<path fill-rule="evenodd" clip-rule="evenodd" d="M46.5193 7.96703L44.3564 10.7484C44.2461 10.9207 44.2947 11.1501 44.4661 11.2589C44.6379 11.3733 44.8712 11.3199 44.9816 11.1495L46.9863 8.35993C47.0905 8.2297 47.0787 8.03656 46.9468 7.92793C46.821 7.82252 46.6253 7.83476 46.5193 7.96703Z"/>
<path fill-rule="evenodd" clip-rule="evenodd" d="M48.9407 8.29808L45.1506 12.852C45.0869 12.9521 45.1182 13.0794 45.2131 13.148C45.3133 13.2105 45.4406 13.1819 45.5046 13.0855L49.3884 8.71725C49.5031 8.59361 49.4935 8.40213 49.3708 8.287C49.2479 8.17001 49.0554 8.17444 48.9407 8.29808Z"/>
<path fill-rule="evenodd" clip-rule="evenodd" d="M50.534 8.15982L46.0217 13.3625C45.8342 13.572 45.85 13.8949 46.0596 14.0776C46.2697 14.2658 46.593 14.2494 46.7745 14.0386L51.2644 8.93597C51.4799 8.73144 51.4885 8.39496 51.2861 8.1834C51.0875 7.97148 50.75 7.9609 50.534 8.15982Z"/>
<path fill-rule="evenodd" clip-rule="evenodd" d="M52.7701 8.6884C52.8379 8.63317 52.8214 8.51775 52.7504 8.42996C52.6527 8.20128 52.3655 8.15969 52.2942 8.30576L52.2701 8.34376C52.2269 8.36657 52.1809 8.40098 52.1353 8.44098C51.7617 8.76746 50.8582 9.56483 50.6187 9.74326C49.7967 10.5916 48.7794 11.5427 47.9892 12.6315C47.4546 13.3724 47.1448 14.1608 46.636 14.7957C46.4764 14.9234 46.4522 15.1539 46.5786 15.3083C46.7054 15.4683 46.9319 15.4909 47.0919 15.3688C47.8829 14.9777 48.7022 14.552 49.4131 13.8666C50.375 12.9337 51.0282 11.6821 51.777 10.765C51.9314 10.4944 52.5016 9.34666 52.7133 8.86338C52.7447 8.79827 52.7613 8.74202 52.7701 8.6884Z"/>
<path fill-rule="evenodd" clip-rule="evenodd" d="M53.4176 8.92524C52.9869 8.84393 51.9368 10.3185 51.6281 10.5806C50.8993 11.3073 49.7119 11.9477 48.9038 12.8835C48.2607 13.6212 47.8979 14.4539 47.7135 15.2572C47.6113 15.474 47.7079 15.7348 47.9238 15.8358C48.1433 15.9326 48.4042 15.8371 48.5025 15.6207C48.7595 15.3313 49.1 15.1794 49.4247 14.8989C50.0954 14.3114 50.8464 13.677 51.5128 13.022C52.0046 12.5451 52.3843 12.0257 52.7132 11.5544C52.966 11.1767 53.9345 9.82089 54.144 9.35667C54.5475 8.45228 54.4635 8.13559 53.5797 8.7388C53.5025 8.77791 53.442 8.84757 53.4176 8.92524ZM53.8333 9.38129L53.7717 9.39637L53.6541 9.3807L53.6395 9.4141C53.6273 9.43218 53.5912 9.46755 53.6263 9.46434L53.8333 9.38129Z"/>
<path fill-rule="evenodd" clip-rule="evenodd" d="M55.1043 9.37771L54.014 10.2412L49.4167 15.0086C49.1702 15.2612 49.1716 15.6646 49.4225 15.9113C49.6738 16.1618 50.0827 16.1564 50.3293 15.9038L55.0029 11.1748L56.1661 8.95624C56.0824 8.73005 55.9656 8.63703 55.8314 8.63234C55.715 8.62978 55.3853 8.9202 55.2323 9.05489C55.121 9.12919 55.0758 9.25963 55.1043 9.37771Z"/>
<path fill-rule="evenodd" clip-rule="evenodd" d="M57.6035 9.27589L50.9831 16.6949C50.9065 16.783 50.9124 16.9126 50.9962 16.9898C51.0839 17.0666 51.2133 17.0605 51.2918 16.9722L58.1246 9.72231C58.2514 9.58059 58.2314 9.36179 58.0904 9.24079C57.9429 9.11285 57.7239 9.12909 57.6035 9.27589Z"/>
<path fill-rule="evenodd" clip-rule="evenodd" d="M57.9472 11.0651C57.6411 11.3986 57.3497 11.6987 57.2758 11.7733C56.3514 12.7291 55.3393 13.6081 54.4331 14.5905C53.5125 15.5875 52.714 16.6713 51.9332 17.7762C51.885 17.8296 51.8932 17.9194 51.9507 17.9669C52.0082 18.0145 52.0942 18.0085 52.142 17.9494L57.8961 12.3578C58.0295 12.2022 58.9505 11.1015 59.2701 10.6141C59.6724 9.99831 59.569 9.21195 58.3371 10.3354L57.9936 10.6686C57.8811 10.7732 57.8612 10.9428 57.9472 11.0651Z"/>
<path fill-rule="evenodd" clip-rule="evenodd" d="M61.5815 10.0341L58.8274 12.2058C57.3388 13.6639 55.7815 15.0604 54.435 16.6526C53.8545 17.3431 53.3939 18.0962 52.8498 18.8192C52.7599 18.9123 52.764 19.0647 52.8589 19.1559C52.9523 19.2511 53.1015 19.2469 53.1951 19.1515C53.9033 18.587 54.6342 18.077 55.291 17.4456C56.781 16.0024 58.0247 14.3196 59.4362 12.7931L62.047 10.4327C62.1575 10.3057 62.1439 10.1147 62.0176 10.0036C61.8876 9.89482 61.6958 9.9067 61.5815 10.0341Z"/>
<path fill-rule="evenodd" clip-rule="evenodd" d="M63.3121 10.9638L63.3109 10.9506L63.3057 10.9379C63.242 10.7363 63.0343 10.5309 62.6521 10.8714C62.5645 10.9473 62.5294 11.058 62.5489 11.1637L62.5458 11.1734L60.2812 12.9495C58.9459 14.2767 57.5294 15.534 56.3063 16.9678C55.4821 17.9427 54.8147 18.9957 54.0689 20.0314C54.0153 20.091 54.016 20.1852 54.074 20.2384C54.1324 20.2953 54.2266 20.2923 54.2841 20.2323C55.2672 19.4239 56.2846 18.7104 57.2218 17.8515C58.6019 16.5844 59.825 15.1505 61.144 13.8173L63.0286 11.6309C63.2129 11.4292 63.3206 11.1855 63.3262 11.0963C63.3343 11.056 63.3243 11.0117 63.3121 10.9638Z"/>
<path fill-rule="evenodd" clip-rule="evenodd" d="M65.3911 11.6603L65.4706 11.604C65.5256 11.5594 65.5469 11.5121 65.5392 11.4714L65.6928 11.2782C65.6959 11.2684 65.4751 10.8134 65.0829 11.002C64.8341 11.1229 64.292 11.5874 64.2787 11.5923C64.1563 11.6752 64.1116 11.832 64.1731 11.966L63.8224 12.2639L61.538 14.2116C60.4635 15.2905 59.2335 16.3271 58.1155 17.4684C56.9648 18.6392 55.9419 19.8963 55.0525 21.1695C55.0048 21.2285 55.0128 21.3164 55.0705 21.3658C55.1281 21.4153 55.2179 21.407 55.2657 21.348L62.4375 15.1363L64.4187 12.8656L65.3911 11.6603Z"/>
<path fill-rule="evenodd" clip-rule="evenodd" d="M65.892 12.359C64.7971 13.0211 63.7119 13.6823 62.7418 14.5254C60.5445 16.4349 58.7655 18.8078 56.6646 20.8028C56.4482 20.998 56.4295 21.3316 56.6245 21.5477C56.8197 21.7674 57.1538 21.7821 57.3741 21.5866L66.3257 12.9247C66.4861 12.8063 66.5145 12.5792 66.3921 12.4245C66.2713 12.2658 66.0482 12.2372 65.892 12.359Z"/>
<path fill-rule="evenodd" clip-rule="evenodd" d="M66.8781 13.4295C66.5036 13.4675 66.0779 13.763 65.6573 14.1786C64.9347 14.8878 64.2065 15.9652 63.7948 16.3706C62.4572 17.7149 60.9443 19.0584 59.6585 20.5828C58.7864 21.6149 58.1396 22.7433 57.2743 23.6994C57.1957 23.765 57.1787 23.8797 57.2453 23.9623C57.3115 24.0411 57.4249 24.0533 57.5035 23.9877C58.666 23.3326 59.8414 22.6687 60.8535 21.703C62.3037 20.3201 63.3745 18.5551 64.5781 17.0796L66.9724 14.0301C67.1351 14.002 67.2529 13.8479 67.2237 13.6789C67.2007 13.5132 67.0428 13.4012 66.8781 13.4295Z"/>
<path fill-rule="evenodd" clip-rule="evenodd" d="M67.4518 15.5521L67.4378 15.5496L64.9482 17.814L59.2742 24.8636C59.1423 24.9926 59.1439 25.2037 59.2717 25.3316C59.3999 25.4632 59.6125 25.4626 59.7385 25.3341C61.1709 24.1866 62.6055 23.0635 63.9093 21.758C64.7661 20.9027 65.5154 19.9479 66.3181 19.0616L68.2149 16.0613C68.3797 15.6464 68.4115 15.3059 68.2981 15.1635C68.18 15.0122 67.9393 14.7702 67.5291 15.0623C67.3743 15.1349 67.3102 15.3161 67.381 15.4662L67.4518 15.5521Z"/>
<path fill-rule="evenodd" clip-rule="evenodd" d="M68.8289 16.6575C68.6328 16.7301 68.3103 16.7766 68.1826 16.8656L65.8647 19.3293L60.9068 26.4378C60.7051 26.6863 60.7384 27.051 60.9849 27.2491C61.2317 27.451 61.5987 27.4174 61.8005 27.1708L67.3696 20.589L69.337 17.8651C69.482 17.5784 69.8642 17.2379 69.9159 16.9635C69.9745 16.679 70.0508 16.4156 69.7857 16.2286C69.4974 16.0249 69.2943 15.9134 69.0917 16.1525C69.0069 16.2584 68.9213 16.5057 68.8444 16.6334L68.8289 16.6575ZM68.9768 16.5534C68.9924 16.5294 68.99 16.5032 68.9653 16.4696C68.9173 16.3967 68.9371 16.4628 68.9768 16.5534Z"/>
<path fill-rule="evenodd" clip-rule="evenodd" d="M69.5523 19.5897C69.3842 19.8615 69.155 20.1522 69.0752 20.2273L66.5423 22.7503L61.7951 28.676C61.5816 28.903 61.5965 29.2599 61.8232 29.4787C62.0494 29.6918 62.4081 29.676 62.6198 29.4511C63.2304 28.9596 63.8551 28.5159 64.4169 27.9648C65.7095 26.7094 66.7838 25.2401 67.9002 23.8443L69.8645 20.851C69.9655 20.6852 70.3463 19.8772 70.4128 19.4845C70.5201 18.8505 70.4029 18.2577 69.5542 19.1368C69.4241 19.243 69.4066 19.4389 69.5167 19.5665L69.5523 19.5897Z"/>
<path fill-rule="evenodd" clip-rule="evenodd" d="M70.7115 20.6605L70.697 20.6524C70.4853 20.5548 70.2368 21.3244 70.1093 21.502L68.613 23.6077C67.6176 25.4016 66.4231 27.0836 65.5351 28.9319C65.1349 29.7643 64.906 30.598 64.5754 31.4599C64.4962 31.5841 64.5289 31.7471 64.6545 31.8299C64.7779 31.9091 64.946 31.8748 65.0291 31.7503C65.8548 30.8563 66.7133 30.0631 67.4566 29.1069C68.5471 27.7078 69.3956 26.1385 70.3327 24.6328L71.397 21.9783C71.4152 21.7258 71.4695 21.0494 71.4349 20.7792C71.4133 20.5435 71.3695 20.408 71.3135 20.3773C71.1848 20.3042 71.0122 20.1389 70.8444 20.3485C70.7451 20.4255 70.6931 20.5453 70.7115 20.6605Z"/>
<path fill-rule="evenodd" clip-rule="evenodd" d="M71.546 23.7212C71.1539 24.1474 70.7436 24.5262 70.6776 24.6001C69.7048 25.9526 68.6356 27.2404 67.7824 28.6725C66.914 30.1323 66.2863 31.6852 65.6636 33.2697C65.5861 33.4125 65.6437 33.5902 65.7846 33.6679C65.9314 33.7449 66.1097 33.6928 66.1868 33.5462L72.0306 25.5551C72.1509 25.3424 73.0786 23.4546 73.233 22.7748C73.3762 22.1243 72.7872 21.1937 71.7415 22.7811L71.443 23.2629C71.3393 23.3987 71.3607 23.5891 71.4923 23.694L71.546 23.7212ZM72.301 22.6356C72.3233 22.5355 72.2984 22.4567 72.2137 22.4135C72.0864 22.3554 72.21 22.5233 72.301 22.6356ZM72.6946 22.9146C72.8539 22.9773 72.9987 22.9904 72.9109 22.8269C72.8803 22.7712 72.804 22.8197 72.6946 22.9146Z"/>
<path fill-rule="evenodd" clip-rule="evenodd" d="M73.3081 23.9826L73.2825 24.0037C72.7201 24.5908 71.9596 25.8107 71.9475 25.8288C70.9729 27.3115 69.6799 28.6914 68.7216 30.267C68.0455 31.3755 67.5864 32.5546 67.2201 33.7574C67.1445 33.9208 67.2167 34.1084 67.3753 34.1844C67.5357 34.2603 67.726 34.1882 67.8019 34.0285L73.3277 26.736C73.3396 26.716 74.2914 25.4786 74.4706 24.64C74.6169 23.9798 74.4929 23.614 74.3535 23.5532C74.1145 23.3506 73.9358 23.3122 73.7232 23.4844C73.6022 23.5822 73.4455 23.8267 73.3081 23.9826Z"/>
<path fill-rule="evenodd" clip-rule="evenodd" d="M74.3552 25.8784C74.1685 26.0972 73.7669 26.4621 73.6677 26.5616L72.3282 28.6172C71.2542 30.4768 69.8366 32.1302 68.8269 34.0254C68.5612 34.5212 68.398 35.0396 68.1941 35.5655C68.0757 35.7555 68.1361 36.0065 68.326 36.1249C68.5219 36.2427 68.7719 36.1784 68.8883 35.9886L73.6713 29.4203L74.8303 27.2418C74.8866 27.0612 75.168 26.3075 75.1799 26.0499C75.2042 25.5404 74.9532 24.7544 74.4282 25.751C74.3919 25.7845 74.3648 25.8322 74.3552 25.8784Z"/>
<path fill-rule="evenodd" clip-rule="evenodd" d="M76.4341 26.985C76.8573 26.4466 76.8114 26.2037 76.5971 26.2064C76.5716 25.8843 76.3269 25.8992 75.8512 26.746L75.8481 26.7558C75.7126 26.953 75.2094 27.627 75.1263 27.7515L73.4864 30.0098L69.9043 36.6437C69.8224 36.7813 69.8665 36.9621 70.0039 37.0438C70.1413 37.1255 70.3219 37.0769 70.4038 36.9393L74.6946 30.7366L75.8862 28.1836C75.9502 28.0439 76.3356 27.243 76.4197 27.0429L76.4341 26.985Z"/>
<path fill-rule="evenodd" clip-rule="evenodd" d="M77.1966 28.6464C75.8483 30.6707 74.3318 32.599 73.0337 34.6771C72.163 36.0693 71.4435 37.542 70.7109 39.0026C70.6055 39.1839 70.6719 39.4154 70.8524 39.5158C71.0332 39.62 71.2614 39.5539 71.365 39.3746C72.4258 37.6501 73.6471 36.0241 74.7298 34.3033C75.8152 32.569 76.7557 30.7556 77.7195 28.9607C77.8108 28.8185 77.7619 28.6287 77.6183 28.5438C77.4705 28.4554 77.2855 28.4988 77.1966 28.6464Z"/>
<path fill-rule="evenodd" clip-rule="evenodd" d="M78.1837 29.9327C78.0806 29.8384 77.7909 30.2647 77.5574 30.5105L76.2404 32.4244C75.3629 33.8926 74.2161 35.2572 73.4229 36.8083C72.8675 37.902 72.5583 39.041 72.2412 40.2015C72.1738 40.3472 72.2385 40.5167 72.3845 40.5844C72.5246 40.6527 72.6997 40.5876 72.7632 40.4423C73.5561 39.2326 74.5736 38.2192 75.4199 37.0122C76.2663 35.8071 76.918 34.4745 77.588 33.1912L78.5816 31.0335C78.6367 30.7097 78.7494 30.3713 78.7781 30.2329C78.9415 29.3731 78.87 29.1288 78.2933 29.7964C78.2431 29.8292 78.2063 29.8778 78.1837 29.9327ZM78.3787 30.3429L78.3971 30.3507L78.4956 30.3511C78.1959 30.454 78.3361 30.4581 78.3787 30.3429Z"/>
<path fill-rule="evenodd" clip-rule="evenodd" d="M79.2558 31.8386C78.8129 31.6226 77.8437 33.5952 77.5304 34.001C76.5809 35.4136 75.5418 36.7722 74.6776 38.2354C74.0949 39.2241 73.6368 40.2636 73.1178 41.2823C73.004 41.4586 73.0509 41.692 73.2288 41.8077C73.4067 41.9234 73.6404 41.8738 73.7541 41.6974C74.4718 40.8058 75.2355 39.9665 75.9022 39.0343C76.8898 37.6503 77.7108 36.1457 78.6122 34.7017C78.8607 34.2339 79.7876 32.7027 79.9892 32.2166C80.116 31.9032 79.8277 31.4619 79.2558 31.8386Z"/>
<path fill-rule="evenodd" clip-rule="evenodd" d="M81.1317 33.3915C82.2583 32.2361 82.2188 31.8682 81.7388 32.1083C81.8854 31.5593 81.5655 31.6338 80.6417 33.0271L80.6293 33.0414C80.5752 33.0954 80.3976 33.3059 80.3291 33.397L79.6969 34.2544L78.6653 35.7594L74.5779 42.7223C74.4391 42.9274 74.4864 43.2078 74.6942 43.3491C74.8998 43.4868 75.1785 43.4349 75.3176 43.2336L79.7467 36.3695L80.4769 34.7111L80.9317 33.7435C80.9692 33.659 81.0907 33.4593 81.1248 33.4015L81.1317 33.3915Z"/>
<path fill-rule="evenodd" clip-rule="evenodd" d="M82.4839 35.1833C82.581 35.2555 82.7081 35.2665 82.8144 35.2021C82.9605 35.1209 83.0102 34.9334 82.924 34.7867C82.8174 34.2024 82.425 34.3023 81.9491 34.5873C81.5235 34.8412 81.0074 35.7842 80.6852 36.2002L76.6896 43.564C76.5135 43.7913 76.5612 44.1189 76.788 44.2961C77.0207 44.4729 77.3489 44.424 77.525 44.1967C78.3111 43.3648 79.0897 42.494 79.7318 41.4866C80.6465 40.0376 81.2845 38.4046 82.0398 36.9344C82.1764 36.6201 82.1096 35.4815 82.5581 35.6291C82.8629 35.7332 82.6785 35.3956 82.4839 35.1833Z"/>
<path fill-rule="evenodd" clip-rule="evenodd" d="M82.8626 37.0645C82.369 37.5642 81.8106 38.4318 81.6754 38.5894C81.014 39.6663 80.2113 40.6601 79.5735 41.7575C78.9014 42.9109 78.4147 44.1321 78.001 45.3977C77.8728 45.6753 77.9974 46.0052 78.2743 46.127C78.5462 46.2586 78.8773 46.1341 79.0056 45.8583C79.9136 44.3364 81.1768 43.1025 82.1846 41.6394C82.6332 40.9911 82.9594 40.2748 83.3172 39.5801C83.4072 39.3381 84.0213 38.0467 84.0482 37.3069C84.0625 36.968 84.0123 36.8066 83.9598 36.6851C83.8734 36.4723 83.795 36.3682 83.5629 36.3706C83.4645 36.3702 83.2653 36.4525 82.958 36.6862C82.8505 36.7809 82.8191 36.9327 82.8626 37.0645Z"/>
<path fill-rule="evenodd" clip-rule="evenodd" d="M84.6822 38.6141L83.2963 40.4626L79.5863 47.3778C79.4636 47.5644 79.5182 47.8159 79.704 47.9328C79.8904 48.0553 80.1413 48.0003 80.2601 47.8141C81.0817 46.7677 81.964 45.761 82.6931 44.6289C83.4253 43.487 83.9852 42.2496 84.5208 41.0238C84.6091 40.7197 85.1545 39.2573 85.1897 38.6525C85.2087 38.3226 85.106 38.1246 84.9614 38.0718C84.8107 37.995 84.6274 38.0571 84.5502 38.2037C84.4734 38.3541 84.5315 38.5373 84.6822 38.6141Z"/>
<path fill-rule="evenodd" clip-rule="evenodd" d="M86.3279 39.3833L84.7415 42.1836L81.4576 47.9887C81.3682 48.1308 81.4151 48.3207 81.5626 48.4053C81.7042 48.4904 81.8951 48.4466 81.9801 48.2992L85.2842 42.4564L86.9188 39.5385C86.9627 39.3723 86.8667 39.2058 86.7053 39.1621C86.5383 39.1226 86.3719 39.2189 86.3279 39.3833Z"/>
<path fill-rule="evenodd" clip-rule="evenodd" d="M88.6616 42.0747L88.6753 42.0735C88.8463 42.0711 88.977 41.929 88.9692 41.7581C88.9972 41.418 88.7876 41.3429 88.4653 41.4138C88.2933 41.4484 87.9909 41.6722 87.8525 41.7942L85.7475 44.4761L82.7211 50.6442C82.6171 50.9272 82.762 51.2421 83.0452 51.3463C83.3283 51.4505 83.6437 51.3047 83.7478 51.0218L87.0005 45.1554L88.4206 42.3024C88.4701 42.2413 88.6232 42.1499 88.6616 42.0747Z"/>
<path fill-rule="evenodd" clip-rule="evenodd" d="M89.7531 43.4616L87.506 47.1088L84.499 51.874C84.391 52.0272 84.4341 52.2401 84.5872 52.3431C84.7406 52.4497 84.9533 52.4076 85.0555 52.2549L88.0569 47.428L90.1987 43.8791C90.3134 43.7555 90.3057 43.5638 90.181 43.4489C90.0622 43.3334 89.8677 43.338 89.7531 43.4616Z"/>
<path fill-rule="evenodd" clip-rule="evenodd" d="M90.4865 45.0307L87.7777 49.2688L85.1817 53.8569C85.1046 54.0035 85.1627 54.1868 85.3134 54.2635C85.4602 54.3406 85.6438 54.2823 85.719 54.1359L88.7812 49.888L90.9815 45.3852C91.0771 45.2463 91.0457 45.0549 90.9111 44.9598C90.7721 44.8612 90.5801 44.892 90.4865 45.0307Z"/>
<path fill-rule="evenodd" clip-rule="evenodd" d="M91.468 46.5124L88.6128 51.2581L85.823 55.4056C85.7313 55.5441 85.7715 55.7253 85.9098 55.8164C86.0436 55.9022 86.2291 55.8644 86.3147 55.7246L89.1252 51.5657L91.9474 46.8891C92.0472 46.7536 92.0259 46.5633 91.8942 46.4584C91.7652 46.3608 91.5723 46.3822 91.468 46.5124Z"/>
<path fill-rule="evenodd" clip-rule="evenodd" d="M92.494 48.151L89.4138 52.0724L86.6515 56.7152C86.5226 56.9194 86.5788 57.1896 86.7839 57.3236C86.9849 57.4542 87.2568 57.3934 87.3879 57.191L90.5798 52.7691L92.9247 48.5774C93.0438 48.459 93.0438 48.2648 92.9271 48.151C92.8079 48.0317 92.6131 48.0326 92.494 48.151Z"/>
<path fill-rule="evenodd" clip-rule="evenodd" d="M93.8792 49.2419L93.9199 49.1929L93.8787 49.2363L93.8792 49.2419L93.8664 49.2525L93.8667 49.2563L93.8787 49.2363C93.9043 49.1718 93.9322 49.1334 93.9646 49.1436C94.2638 49.2294 93.7679 48.6712 93.763 48.7038C93.7608 48.7228 93.5182 48.6319 93.3973 48.8806L93.383 48.9177L93.3869 48.9173C93.4159 48.9335 93.4019 48.9744 93.3698 49.032L93.3584 49.0142L93.3567 48.9955L93.3811 48.9178L93.3201 48.8971C93.2867 48.919 93.3215 48.9554 93.3317 48.9808L93.3564 49.0144L93.3554 49.0466C93.2868 49.1792 93.1246 49.3637 93.0734 49.4495L92.6069 50.2031L91.2078 52.4036L87.5716 58.2957C87.4508 58.4595 87.4853 58.6864 87.6494 58.8015C87.814 58.9222 88.0387 58.8828 88.154 58.7233L92.2548 53.0037L93.3927 50.6159L93.7218 49.7806C93.7711 49.6742 93.8161 49.391 93.8792 49.2419Z"/>
<path fill-rule="evenodd" clip-rule="evenodd" d="M94.6357 49.8697L92.4695 52.7645L88.5341 58.5708C88.3848 58.7466 88.4084 59.0047 88.5836 59.1547C88.7584 59.3009 89.0219 59.2768 89.1672 59.1013L93.5679 53.4543L95.0951 50.3086C95.2134 50.1808 95.2091 49.9832 95.0856 49.8606C94.9567 49.7423 94.7544 49.7476 94.6357 49.8697Z"/>
<path fill-rule="evenodd" clip-rule="evenodd" d="M96.0042 50.3777L94.4585 53.4723L90.6565 58.8213C90.5178 58.983 90.5397 59.2223 90.7019 59.3602C90.8618 59.4946 91.1038 59.4725 91.2406 59.311C91.842 58.6544 92.4655 58.0033 93.0209 57.2963C93.858 56.2259 94.5643 55.0599 95.1718 53.8465L96.5291 50.6937C96.6144 50.5501 96.5716 50.3616 96.428 50.2767C96.2839 50.1862 96.0955 50.2354 96.0042 50.3777Z"/>
<path fill-rule="evenodd" clip-rule="evenodd" d="M97.8847 50.5782C97.1834 51.0252 96.555 51.6655 96.0179 52.4218C95.2865 53.4636 94.7336 54.6928 94.0755 55.6111L91.5742 58.976C91.5149 59.1662 91.6199 59.3679 91.8088 59.4317C91.9993 59.4916 92.2003 59.3864 92.2599 59.198L94.8028 56.1386L98.2449 51.0733C98.3831 50.9702 98.4109 50.779 98.3139 50.6446C98.211 50.5088 98.0195 50.4811 97.8847 50.5782Z"/>
<path fill-rule="evenodd" clip-rule="evenodd" d="M97.7097 52.8062L95.8258 55.3019C95.4351 55.8506 94.7614 56.3836 94.2615 57.0083C93.8597 57.5221 93.5719 58.0784 93.4415 58.6108C93.347 58.9117 93.5118 59.2286 93.8122 59.3275C94.1121 59.4207 94.4293 59.2522 94.5243 58.9569L96.7363 55.873L98.0474 53.3128C98.1864 53.219 98.2282 53.0303 98.1348 52.8918C98.0416 52.7551 97.8528 52.7139 97.7097 52.8062Z"/>
<path fill-rule="evenodd" clip-rule="evenodd" d="M98.5607 53.718L94.4004 58.3133C94.1695 58.5004 94.1337 58.8413 94.3162 59.0716C94.5026 59.3016 94.8449 59.342 95.0738 59.1551C95.3078 59.0658 95.5228 59.0065 95.7253 58.8522C97.2183 57.7218 97.7283 55.5499 98.9809 54.1586C99.1003 54.0439 99.1063 53.851 98.9905 53.7258C98.8793 53.6078 98.686 53.6028 98.5607 53.718Z"/>
<path fill-rule="evenodd" clip-rule="evenodd" d="M99.1838 54.7381C98.647 55.4982 98.1878 56.3303 97.5346 57.0011C97.2431 57.3012 96.8975 57.5044 96.5704 57.7588C96.3271 58.0469 96.363 58.483 96.6549 58.726C96.9468 58.969 97.3782 58.9295 97.6274 58.6408L100.05 55.4076C100.235 55.1663 100.193 54.823 99.9523 54.6395C99.715 54.4557 99.3684 54.4968 99.1838 54.7381Z"/>
</svg>
