<?xml version="1.0" standalone="no"?>
<!DOCTYPE svg PUBLIC "-//W3C//DTD SVG 20010904//EN"
 "http://www.w3.org/TR/2001/REC-SVG-20010904/DTD/svg10.dtd">
<svg version="1.0" xmlns="http://www.w3.org/2000/svg"
 width="139.000000pt" height="173.000000pt" viewBox="0 0 139.000000 173.000000"
 preserveAspectRatio="xMidYMid meet">

<g transform="translate(0.000000,173.000000) scale(0.100000,-0.100000)"
 stroke="none">
<path d="M505 1698 c-68 -13 -150 -20 -256 -21 l-155 -2 -43 -34 c-48 -38 -47
-28 -17 -167 25 -114 37 -290 26 -362 -6 -35 -8 -67 -5 -72 9 -14 91 31 163
90 l63 51 28 -21 c16 -11 53 -46 82 -77 133 -146 225 -300 283 -473 48 -144
60 -228 53 -393 l-5 -137 26 -14 c15 -7 74 -26 130 -41 102 -27 108 -28 280
-21 98 4 186 9 197 12 19 5 20 10 13 123 -17 286 -113 572 -273 811 -117 175
-315 379 -507 521 -46 34 -85 63 -87 65 -2 2 28 38 68 80 39 42 71 82 71 90 0
17 -8 16 -135 -8z m16 -85 c-34 -37 -61 -75 -61 -83 0 -9 51 -55 114 -103 132
-101 321 -286 411 -402 182 -234 287 -487 330 -795 8 -63 18 -130 21 -147 l5
-33 -189 0 -189 0 -7 162 c-3 90 -13 197 -21 238 -59 299 -237 600 -491 830
-68 62 -104 83 -104 62 0 -5 -23 -45 -52 -88 l-52 -79 -17 115 c-10 63 -33
167 -52 232 l-34 116 106 0 c90 0 297 25 310 38 2 2 11 4 18 4 8 0 -13 -30
-46 -67z m-432 -12 c-6 -18 -13 -30 -15 -28 -2 2 1 18 7 36 6 18 13 30 15 28
2 -2 -1 -18 -7 -36z m-28 -12 c-5 -13 -10 -19 -10 -12 -1 15 10 45 15 40 3 -2
0 -15 -5 -28z m57 -36 c0 -29 -36 -109 -44 -100 -3 3 2 19 11 36 9 18 14 35
12 39 -5 7 9 52 16 52 3 0 5 -12 5 -27z m2 -144 c-17 -35 -28 -55 -24 -44 3
11 8 29 11 40 3 16 2 15 -10 -4 l-14 -24 0 26 c0 16 4 24 10 20 6 -4 8 0 4 11
-4 10 -3 15 3 11 6 -3 10 0 10 7 0 10 2 10 9 -1 7 -11 10 -9 16 8 4 13 9 21
11 18 2 -2 -9 -33 -26 -68z m6 -56 c-19 -37 -35 -62 -36 -55 0 21 65 152 68
137 2 -7 -13 -44 -32 -82z m40 18 c-1 -16 -4 -27 -7 -25 -4 2 -10 -3 -13 -12
-4 -9 -9 -15 -12 -12 -4 5 26 78 31 78 1 0 2 -13 1 -29z m21 -63 c0 -18 -2
-27 -5 -20 -3 10 -8 8 -18 -5 -13 -16 -13 -15 -4 11 20 55 27 59 27 14z m201
-32 c-17 -33 -19 -32 -13 5 5 27 1 22 -16 -21 -12 -30 -24 -50 -26 -43 -3 7 5
33 16 59 18 39 23 45 36 34 11 -9 12 -17 3 -34z m-275 -1 c-9 -19 -18 -33 -21
-31 -4 5 26 66 33 66 3 0 -3 -16 -12 -35z m293 -62 c-18 -52 -20 -65 -7 -45 6
10 10 6 16 -15 7 -28 7 -28 31 22 20 40 23 44 20 20 -3 -16 -9 -43 -15 -59
l-11 -28 -35 33 c-19 19 -35 39 -35 44 0 6 10 30 21 55 26 56 37 37 15 -27z
m-208 12 c0 -19 -5 -38 -11 -42 -6 -4 -8 0 -4 10 9 24 0 21 -14 -4 -8 -15 -8
-19 0 -15 6 4 11 2 11 -4 0 -6 4 -9 9 -5 5 3 12 1 15 -4 4 -5 -2 -8 -11 -6
-10 1 -22 0 -28 -4 -5 -3 -14 -6 -20 -6 -5 0 -11 -10 -11 -23 -1 -24 -14 -44
-14 -22 0 9 -7 7 -22 -6 -12 -11 -5 6 19 41 22 33 48 75 57 93 9 17 18 32 20
32 2 0 4 -16 4 -35z m244 -31 c-13 -35 -18 -41 -24 -27 -10 26 -9 35 2 28 6
-3 10 -2 10 4 0 5 3 17 7 27 4 12 3 15 -5 10 -8 -5 -10 -2 -6 9 5 11 10 13 19
5 11 -9 11 -19 -3 -56z m-322 5 c-12 -23 -24 -39 -26 -36 -5 5 35 77 42 77 3
0 -5 -18 -16 -41z m381 -23 c5 3 0 -18 -11 -48 -11 -29 -20 -55 -20 -58 0 -3
-5 2 -10 11 -6 10 -3 34 7 70 10 31 19 46 21 36 2 -9 8 -15 13 -11z m11 -71
c-20 -59 -20 -60 -27 -53 -3 3 1 20 8 39 8 19 17 43 21 53 3 10 8 17 11 15 2
-3 -4 -27 -13 -54z m37 18 c-1 -31 -35 -117 -42 -107 -3 6 0 28 8 50 8 21 14
47 15 57 0 9 5 17 10 17 6 0 10 -8 9 -17z m6 -77 c-10 -31 -21 -56 -26 -56 -4
0 1 27 13 60 27 74 36 71 13 -4z m46 9 c5 3 7 0 5 -7 -40 -127 -37 -121 -52
-100 -12 18 -11 28 9 83 15 43 23 56 25 41 2 -12 8 -20 13 -17z m-1 -101 c-22
-51 -21 -42 1 41 9 30 15 42 17 29 2 -11 -6 -43 -18 -70z m35 2 c-10 -26 -19
-45 -20 -44 -2 2 2 27 8 56 7 31 15 48 20 43 6 -6 2 -27 -8 -55z m30 2 c-13
-45 -40 -108 -47 -108 -3 0 3 29 15 65 12 36 25 65 30 65 4 0 5 -10 2 -22z m8
-58 c-9 -22 -18 -39 -19 -37 -6 6 19 77 27 77 4 0 0 -18 -8 -40z m17 -17 c-11
-17 -11 -17 -6 0 3 10 6 24 7 30 0 9 2 9 5 0 3 -7 0 -20 -6 -30z m4 -67 c-32
-71 -40 -69 -13 5 32 88 32 86 36 68 2 -8 -8 -41 -23 -73z m46 36 c0 -4 -13
-39 -30 -77 -16 -39 -30 -61 -30 -51 0 27 41 136 51 136 5 0 9 -4 9 -8z m-99
-25 c-10 -9 -11 -8 -5 6 3 10 9 15 12 12 3 -3 0 -11 -7 -18z m139 -64 c0 -7
-14 -40 -30 -73 -30 -60 -47 -79 -35 -39 5 14 4 19 -4 15 -7 -5 -8 -1 -4 9 4
11 8 13 13 5 4 -6 15 9 26 37 28 70 28 73 0 23 -29 -52 -32 -50 -11 10 18 50
18 53 5 45 -6 -3 -7 1 -4 10 5 13 9 12 25 -6 11 -12 19 -28 19 -36z m23 -52
c12 -24 12 -32 1 -52 -7 -13 -13 -28 -13 -34 0 -5 7 4 16 20 13 22 18 26 21
13 2 -9 -14 -51 -36 -94 -38 -75 -39 -76 -45 -46 -5 23 1 49 23 98 32 71 40
115 9 49 -13 -28 -19 -34 -19 -20 l-1 20 -9 -20 c-12 -27 -12 -43 0 -25 16 25
11 -3 -6 -30 -15 -25 -15 -25 -8 -1 4 16 3 21 -5 17 -6 -4 -11 -5 -11 -2 0 7
63 136 66 136 2 0 9 -13 17 -29z m56 -161 c0 -22 -88 -188 -88 -168 -1 10 14
46 33 80 19 35 37 74 40 88 4 14 -7 -1 -24 -33 -19 -36 -35 -55 -42 -51 -8 5
-9 1 -4 -12 6 -15 5 -17 -5 -6 -11 10 -5 28 26 93 l40 81 12 -29 c7 -15 12
-35 12 -43z m-26 -139 c-26 -44 -48 -79 -50 -77 -2 2 16 44 39 93 27 57 46 85
51 77 4 -7 -12 -45 -40 -93z m54 18 c2 -23 -11 -51 -49 -107 -52 -79 -88 -124
-49 -62 47 76 93 161 88 166 -2 2 -23 -27 -46 -66 -23 -38 -44 -70 -47 -70 -2
0 9 24 26 53 17 28 39 67 47 85 21 40 27 40 30 1z m-56 -180 c-39 -56 -71 -97
-71 -90 0 7 17 38 38 69 21 31 52 79 68 107 18 32 30 44 32 33 2 -9 -29 -62
-67 -119z m75 -17 c1 -42 -3 -83 -9 -90 -7 -9 -6 -11 4 -7 10 3 14 -3 15 -20
1 -14 -2 -25 -8 -25 -5 0 -6 6 -2 12 4 7 -4 3 -17 -8 -23 -21 -64 -30 -53 -12
3 5 9 6 13 3 5 -2 17 5 27 18 l19 22 -22 -19 c-16 -13 -23 -15 -23 -6 0 9 -7
7 -22 -6 l-23 -19 23 26 c33 38 27 47 -10 13 -26 -23 -29 -24 -12 -4 37 44 37
56 0 18 -54 -56 -53 -46 2 25 61 78 95 127 89 127 -3 0 -24 -24 -48 -52 -23
-29 -40 -48 -38 -42 9 24 84 132 89 128 3 -3 5 -40 6 -82z m7 -155 c7 3 8 2 4
-2 -14 -16 -36 -14 -29 3 4 10 7 12 10 4 2 -7 9 -9 15 -5z"/>
<path d="M466 1115 c-9 -26 -7 -32 5 -12 6 10 9 21 6 23 -2 3 -7 -2 -11 -11z"/>
<path d="M572 1003 c-15 -48 -8 -55 8 -8 7 20 10 38 8 41 -3 2 -10 -13 -16
-33z"/>
<path d="M772 695 c-17 -37 -14 -45 4 -12 9 16 14 31 11 33 -2 2 -9 -7 -15
-21z"/>
<path d="M762 565 c-17 -37 -14 -45 4 -12 9 16 14 31 11 33 -2 2 -9 -7 -15
-21z"/>
<path d="M797 515 c-24 -50 -20 -58 4 -12 11 22 19 41 17 43 -3 2 -12 -12 -21
-31z"/>
<path d="M866 201 c-24 -25 -26 -32 -16 -50 6 -12 8 -27 5 -34 -4 -6 5 1 18
16 16 20 24 40 23 63 0 19 -1 34 -2 34 0 0 -13 -13 -28 -29z m21 -20 c1 -11
-6 -25 -15 -32 -14 -11 -15 -11 -4 1 18 21 15 34 -5 19 -15 -11 -14 -10 1 9
23 27 21 26 23 3z"/>
</g>
</svg>
