<svg width="149" height="213" viewBox="0 0 149 213" fill="none" xmlns="http://www.w3.org/2000/svg">
<path fill-rule="evenodd" clip-rule="evenodd" d="M69.355 186.104C69.3067 186.169 69.2896 186.253 69.309 186.336C69.3457 186.491 69.5041 186.587 69.6603 186.552C69.837 186.762 69.5339 187.139 70.8153 185.897C71.0447 185.674 71.1397 185.312 71.2613 184.804C71.7278 182.839 71.4992 179.349 71.5203 178.996L71.1356 155.875C70.7783 132.13 71.9548 108.378 71.3995 84.6436C71.3025 80.4729 71.2222 76.3052 70.7979 72.1552C70.6141 70.3493 70.2668 68.6134 69.9863 66.816C69.9788 66.5109 69.7251 66.2689 69.4203 66.2797C69.1164 66.2848 68.8744 66.5391 68.8818 66.8442C68.6891 68.6441 68.4095 70.3906 68.2826 72.1964C67.9909 76.341 67.9636 80.4894 67.8647 84.6448C67.3022 108.396 66.6567 132.153 66.7235 155.916L67.2275 179.151C67.2733 179.502 67.5188 182.945 68.0697 184.879C68.1952 185.318 68.7271 185.622 68.5151 185.806C67.648 186.558 68.8874 186.326 69.355 186.104Z"/>
<path fill-rule="evenodd" clip-rule="evenodd" d="M42.578 66.3164L42.7077 66.1947C45.8526 63.3917 48.929 60.4911 51.9477 57.5325C54.9575 54.5822 57.9137 51.5726 60.8281 48.5496C64.3487 44.8949 67.793 41.0954 71.0337 37.1343C74.2933 33.1508 77.3491 29.0076 80.0816 24.6893C80.4136 24.1652 81.5799 22.1508 82.3295 20.8479C84.2842 23.6882 86.333 26.4758 88.4545 29.201C90.8173 32.2355 93.2725 35.2033 95.7948 38.0957L118.415 60.4023C113.84 60.3699 99.8215 60.1185 93.9598 60.8796C91.1261 61.2488 89.7192 62.6581 89.5394 63.3307C88.8881 65.7689 88.6558 78.7847 88.7712 95.3332C88.943 119.823 89.7367 152.187 89.8062 168.688L91.0075 196.716L71.2577 194.58C71.0061 192.137 70.461 187.201 69.5778 180.799C69.143 177.652 68.5128 174.219 67.9366 170.49C67.9216 170.258 67.7222 170.083 67.4896 170.095C67.2568 170.108 67.0801 170.311 67.0931 170.544C66.9721 174.318 66.8001 177.809 66.8044 180.99C66.8172 190.389 67.3203 196.626 67.3203 196.626C67.4052 197.604 68.1653 198.386 69.1411 198.497L93.0576 201.342C93.6982 201.415 94.3378 201.202 94.8078 200.758C95.2774 200.317 95.5282 199.691 95.4919 199.047L94.4455 168.67C94.3673 149.673 93.464 109.657 93.3538 84.823C93.3122 75.4131 93.3319 68.2377 93.6502 65.3942C93.9249 65.3323 94.2456 65.2688 94.5416 65.2286C100.7 64.3776 116.089 64.6307 119.3 64.5993C119.547 64.5978 122.458 64.6356 123.355 64.2744C124.945 63.6405 125.15 62.4443 124.745 61.3591C124.609 60.9991 123.613 59.7008 121.893 57.9529C115.996 51.9636 101.069 38.0888 98.7908 35.4883C96.3178 32.6465 93.9075 29.7444 91.5879 26.7632C89.2747 23.7892 87.0503 20.7478 84.944 17.6341C84.67 17.2296 84.0837 16.4455 83.5037 16.1449C83.026 15.8964 82.5226 15.8121 82.0082 15.8945C81.3025 16.0062 80.4355 16.5018 79.6672 17.4381C78.4625 18.9075 77.2111 21.7563 76.7027 22.5545C74.0485 26.726 71.0772 30.7315 67.9124 34.5851C64.7315 38.4557 61.3544 42.1679 57.9011 45.7335C55.0072 48.7225 52.0735 51.6983 49.0861 54.6149C46.1077 57.5232 43.0732 60.3758 39.9723 63.129C39.6508 63.4168 37.5249 65.4476 37.3643 66.4592C37.2295 67.3065 37.4803 68.0166 38.0782 68.5805C39.5512 69.9585 42.2887 70.6043 45.7624 70.5425C51.0433 70.4455 58.3004 69.2597 64.0757 68.5268C66.3286 68.238 68.3002 68.2482 69.8936 68.0318C70.6513 67.9295 70.9038 67.5598 71.549 67.4572C71.6941 67.5288 71.8678 67.4667 71.9368 67.3183C72.0052 67.1737 71.943 66.9998 71.7973 66.9319C71.4818 66.2936 71.4161 65.9583 70.7617 65.4756C69.4797 64.5329 67.3563 64.5669 65.1501 64.5325C59.6309 64.4597 52.4504 66.1297 46.9291 66.398C45.2445 66.479 43.7373 66.5342 42.578 66.3164Z"/>
<path fill-rule="evenodd" clip-rule="evenodd" d="M71.8716 192.558C71.2383 192.42 70.6573 192.313 70.251 192.272C69.064 192.147 68.2887 192.91 70.9131 193.801C71.0596 193.866 71.2321 193.799 71.2964 193.653L71.3002 193.635C72.5614 194.079 74.1356 194.724 74.7172 195.077L76.3486 195.801C76.9921 196.186 77.6507 196.517 78.3171 196.756C78.1975 196.713 78.1271 196.671 78.0983 196.629L78.2356 196.698L78.1372 196.493C78.4044 196.263 79.5945 196.086 79.5945 196.086C79.5945 196.086 79.6289 195.85 79.5236 195.594C80.6938 196.387 81.8998 197.068 83.1332 197.555C83.8119 197.822 84.1876 197.472 84.2496 197.433C84.3416 197.372 84.6641 196.98 84.721 196.521L87.4314 198.179L88.8152 198.974C88.9009 199.018 89.0912 199.162 89.146 199.2L89.1601 199.209C93.0731 202.456 94.7837 202.939 94.7455 202.066C95.6581 202.056 94.881 200.732 91.1496 197.766L91.0466 197.682L90.7699 197.468L90.5769 197.316L90.1636 197.004L90.3646 197.141L90.7347 197.4L91.1726 197.714L91.0969 197.657L91.1499 197.695C91.1499 197.695 91.0204 197.554 90.8254 197.328C90.5364 196.587 92.6185 196.124 92.6185 196.124C92.6185 196.124 92.5509 196.054 92.4483 195.974C92.3131 195.87 91.8309 195.511 91.6348 195.366L89.9685 194.153L85.9783 190.907L81.3772 187.779C79.5253 186.191 77.769 184.522 76.1265 182.822L73.4203 179.524C73.6998 179.784 73.9594 180.015 74.1911 180.194L83.6483 187.504L88.4023 191.148L90.145 192.609C90.43 192.831 91.1672 193.338 91.3794 193.439C91.8476 193.661 92.198 193.525 92.3153 193.471C92.6937 193.295 92.9339 193.004 92.939 192.537C92.9388 192.442 92.9707 192.108 92.6075 191.731L76.5716 178.144L73.4545 174.595L81.9132 181.388C83.631 182.938 86.4335 185.885 88.9991 188.029C90.3925 189.195 91.7336 190.126 92.8322 190.55C94.0646 191.027 94.4444 190.014 94.5223 189.687C94.5682 189.489 94.6002 189.137 94.3454 188.732C94.2302 188.547 93.5646 187.945 93.3094 187.683L92.8697 187.259L92.9715 187.221C93.6077 186.925 94.2259 186.251 93.7769 184.924C93.6797 184.638 93.4937 184.259 93.2057 183.786C93.1798 183.607 93.1217 183.426 93.0351 183.244C92.9168 182.992 92.6078 182.702 92.3013 182.418C91.7188 181.595 90.9592 180.609 90.0066 179.453C88.6361 177.79 87.1202 176.221 85.5436 174.703C83.2383 172.483 80.8025 170.372 78.5148 168.213C77.0585 166.839 75.4026 164.841 73.6624 163.293C72.7985 162.524 71.913 161.858 71.0206 161.401C70.0123 160.881 69.5352 161.44 69.293 161.989C69.2086 162.179 69.2919 163.105 69.4568 163.462L69.583 163.644C68.6821 163.825 67.6684 164.823 69.1003 167.27L70.1159 168.969L70.7544 169.805C70.3477 169.649 69.9658 169.57 69.6425 169.583C69.3096 169.596 68.2815 169.898 68.5055 171.185C68.5886 171.665 68.9483 172.673 70.2087 174.182L71.2481 175.301C70.8655 175.159 70.4853 175.078 70.1125 175.068C69.821 175.061 68.6526 175.598 69.1624 176.781C69.452 177.453 70.4302 179.119 70.4652 179.166L72.5857 181.665C72.147 181.381 71.7098 181.13 71.3229 180.964C70.4996 180.611 69.8046 180.645 69.4174 180.938C68.992 181.246 68.861 182.182 69.6451 183.24C69.8421 183.506 70.0855 183.8 70.3561 184.102C70.0098 184.001 69.6927 183.965 69.4329 184.009C68.8702 184.1 68.2116 184.693 68.8567 185.796C69.0075 186.052 69.244 186.391 69.5477 186.775C68.9037 186.607 68.3033 186.625 67.8443 186.843C67.4968 187.009 66.8115 187.895 67.6671 188.897C68.4627 189.828 70.9698 191.917 71.1343 192.03C71.3818 192.198 71.6263 192.374 71.8716 192.558ZM73.8027 184.873C74.1206 185.323 74.4001 185.694 74.6096 185.878C76.0888 187.163 77.6298 188.332 79.2006 189.442C81.8845 191.339 84.6518 193.074 87.3427 194.947L84.5294 192.781L74.1388 185.132L73.8027 184.873ZM75.445 192.888C75.9256 193.269 76.4144 193.636 76.913 193.972C77.2068 194.168 77.5015 194.355 77.8017 194.521L77.9417 194.58L78.2787 194.736L77.9024 194.509L75.445 192.888Z"/>
<path fill-rule="evenodd" clip-rule="evenodd" d="M70.1315 160.018L72.6859 163.235L77.1029 167.424C77.9155 168.318 78.7482 169.189 79.6 170.042C81.3222 171.765 83.1215 173.412 84.9789 175.017C85.7888 175.719 86.7987 176.845 87.8479 177.672C88.4164 178.118 89.0027 178.48 89.5745 178.699C90.0891 178.895 90.4071 178.756 90.5144 178.716C90.9545 178.552 91.9415 177.681 90.9008 176.66C90.8378 176.598 90.6883 176.483 90.5129 176.355L90.6492 176.304C91.1592 176.104 92.4356 174.961 91.0946 173.716C90.9404 173.575 90.2766 173.138 90.0357 172.924L88.8274 171.796C89.4364 172.25 90.2954 172.214 90.8639 171.681C91.4824 171.101 91.5387 170.138 90.9911 169.49L90.0484 168.468C90.5565 168.636 90.9455 168.49 91.181 168.356C91.4861 168.183 92.3036 167.648 91.7708 166.498C91.5187 165.953 91.105 165.396 90.5993 164.862L90.4877 164.75C90.6183 164.827 90.7434 164.887 90.8611 164.93C91.8516 165.294 92.2648 164.627 92.3935 164.372C92.5082 164.145 92.6349 163.76 92.3931 163.278C92.3005 163.093 91.6819 162.47 91.4363 162.209L90.3251 160.942L85.1494 155.536C83.1174 153.146 81.1111 150.748 79.2396 148.248C78.5137 147.278 77.8127 146.293 77.1326 145.291L79.3129 147.653L83.4224 151.734L88.3746 156.985C89.3811 158.004 89.8534 158.47 90.0773 158.683C90.2403 158.838 90.3224 158.903 90.3597 158.934C90.8761 159.333 91.1774 159.233 91.2716 159.231C92.0316 159.205 92.3418 158.805 92.5162 158.332C92.6243 158.041 92.6964 157.472 92.2864 156.822C91.8682 156.165 90.4359 154.804 90.2703 154.624L89.4235 153.782C89.7584 153.993 90.0909 154.162 90.4184 154.282C91.2469 154.593 91.6571 154.1 91.8173 153.894C92.0026 153.657 92.1893 153.267 91.989 152.73C91.9474 152.618 91.6304 152.213 91.4999 152.045L90.587 150.944C91.0767 150.989 91.6512 150.865 91.9703 150.034C92.0464 149.838 92.1598 149.229 91.6832 148.574C91.5821 148.435 91.4275 148.252 91.2528 148.057C91.602 148.112 91.8935 148.046 92.0759 147.965C92.5652 147.747 92.7649 147.392 92.8641 147.051C92.9586 146.72 92.5483 145.808 92.2527 145.391L90.6818 143.301L89.8374 142.39C90.2036 142.298 90.567 142.067 90.7846 141.499C90.8528 141.317 90.8954 141.051 90.8492 140.728L90.963 140.862C91.1055 141.074 91.5291 141.543 91.6613 141.636C92.7104 142.371 93.3352 141.538 93.4798 141.051C93.5147 140.931 93.6328 140.627 93.4168 140.176C92.9896 139.284 92.2792 138.373 91.4354 137.468C91.1318 137.139 90.8099 136.815 90.4767 136.492L88.0204 133.571C88.1009 133.545 88.1759 133.504 88.2459 133.449C88.6772 133.126 88.764 132.516 88.4402 132.082C86.9037 129.756 85.3865 127.434 83.6966 125.215C81.1921 121.932 78.4412 118.843 75.9329 115.561C75.774 115.354 73.8722 112.207 72.374 110.699C71.5783 109.895 70.7636 109.516 70.2166 109.52C68.9972 109.521 68.518 110.171 68.6318 111.284C68.69 111.854 69.2746 112.919 69.5537 113.47L70.3596 114.761C69.9674 114.452 69.5613 114.173 69.1376 113.924C68.1693 113.353 67.679 114.059 67.5567 114.322C67.4788 114.484 67.3846 114.781 67.5311 115.18C67.5859 115.328 67.8296 115.682 68.0779 116.042C67.3078 116.172 67.047 116.705 67.237 117.567C67.3632 118.137 68.0591 119.183 68.3658 119.727C68.7301 120.429 69.1237 121.122 69.5407 121.802C68.6736 122.092 68.4906 122.777 68.8723 123.778C69.0324 124.199 69.5851 124.86 69.9462 125.383C69.3666 125.308 68.93 125.599 68.7445 125.815C68.557 126.031 68.3068 126.409 68.427 127.049C68.4889 127.378 68.7941 128.129 69.5585 129.403L70.1701 130.363C70.0722 130.42 69.9816 130.494 69.8933 130.572C69.4383 130.997 69.1791 132.007 69.6883 133.277C70.1045 134.32 70.9722 135.717 71.6574 136.751C71.2744 136.845 70.9089 137.111 70.6868 137.727C70.4283 138.449 70.5732 139.478 71.1134 140.552C71.3957 141.116 71.7767 141.704 72.1659 142.261C71.3893 141.903 70.8384 142.277 70.5551 142.607C70.3814 142.81 70.1231 143.201 70.2812 143.881C70.461 144.66 70.8075 145.447 71.2585 146.22C71.1658 146.238 71.0836 146.264 71.017 146.296C70.7374 146.423 70.1434 147.168 70.6166 148.307C70.8143 148.782 71.1614 149.464 71.5669 150.199C71.21 149.995 70.9213 149.922 70.7752 149.915C69.9976 149.86 69.55 150.247 69.3213 150.854C69.1199 151.394 69.1601 152.249 69.5726 153.22C69.888 153.96 70.4236 154.842 70.9692 155.655L70.7691 155.581C69.6701 155.208 69.3865 155.85 69.3538 156.454C69.3441 156.637 69.7032 157.398 69.8885 157.696L70.5165 158.743L70.4609 158.698C70.1969 158.626 70.0393 158.654 69.9742 158.683C69.6927 158.81 69.2004 159.183 69.6967 159.698C69.7552 159.753 69.9385 159.884 70.1315 160.018ZM83.5823 157.639L84.0701 158.182L85.9576 160.119L88.438 162.796C87.7743 161.991 87.1497 161.144 86.7607 160.754L82.893 156.842L83.5823 157.639ZM87.2376 170.353L87.261 170.378L88.1187 171.142L86.9859 170.069L87.2376 170.353ZM77.1708 140.067C77.9683 141.128 78.7868 142.174 79.6223 143.2C81.1665 145.103 82.7685 146.961 84.3969 148.801L84.9769 149.378C83.7255 147.791 82.5869 146.182 81.7092 145.186L79.4884 142.518L77.1708 140.067ZM77.0004 154.396C77.6909 155.297 78.4108 156.171 79.1477 157.028C79.9406 157.952 80.756 158.856 81.5893 159.75L83.2767 161.428C82.4113 160.46 81.5587 159.487 80.7233 158.498L77.0004 154.396Z"/>
<path fill-rule="evenodd" clip-rule="evenodd" d="M70.1817 101.825C69.8287 102.029 69.0074 102.932 69.5985 104.32C70.0185 105.308 71.0704 107.214 71.8068 108.508C71.0028 108.234 70.5539 108.644 70.3537 108.846C70.0761 109.123 69.8303 109.561 69.9975 110.201C70.0437 110.375 70.5201 111.028 70.705 111.305L71.3066 112.222L71.28 112.294C71.139 112.724 71.5318 114.056 72.5506 115.638C73.9398 117.798 76.2077 120.778 77.8389 122.775C78.7479 124.077 79.6717 125.358 80.62 126.621C82.2901 128.85 84.035 131.016 85.9291 133.128C86.4896 133.755 88.1888 136.306 89.6096 137.536C90.3946 138.217 91.1921 138.539 91.7791 138.556C93.2973 138.598 93.6538 137.708 93.6872 136.909C93.6997 136.606 93.6327 136.172 93.3352 135.699C92.9207 135.042 91.6433 133.884 91.1046 133.287L90.0587 132.123C90.3234 132.238 90.5374 132.281 90.6548 132.285C91.6144 132.346 92.1923 131.905 92.473 131.123C92.6666 130.58 92.6036 129.483 91.7332 128.373C90.6936 127.049 88.4596 125.157 88.1455 124.837C86.1684 122.836 84.2791 120.771 82.4879 118.631L83.1022 119.285C84.9237 121.241 87.103 123.225 88.148 124.103C88.4931 124.395 88.7483 124.584 88.8718 124.666C89.3246 124.959 89.6832 124.995 89.8297 125.005C91.0362 125.119 91.599 124.456 91.8748 123.719C92.0305 123.303 92.1412 122.428 91.4715 121.472C90.7974 120.51 88.5225 118.514 88.3864 118.365C87.6591 117.584 86.9354 116.801 86.216 116.005C87.178 116.736 88.0686 117.268 88.8225 117.534C90.4297 118.095 91.0783 117.033 91.2676 116.614C91.4276 116.259 91.6212 115.66 91.2253 114.926C91.0367 114.576 89.8172 113.412 89.3143 112.944L86.7264 110.176L86.3356 109.695L86.9314 110.279C87.4071 110.74 88.2229 111.796 88.7381 112.09C89.3014 112.411 89.8393 112.447 90.2814 112.358C90.8905 112.241 91.5225 111.904 91.8761 110.968C92.0433 110.517 92.1171 109.65 91.4725 108.682C91.2385 108.331 90.843 107.879 90.3846 107.402C91.4242 107.691 92.2823 107.222 92.4283 107.081C92.9356 106.595 93.5007 105.493 92.6728 104.098C92.2968 103.466 91.4077 102.487 90.5534 101.609C91.5546 101.58 92.1142 100.646 92.2283 100.321C92.3914 99.8664 92.4659 99.0253 91.8927 98.0711C91.324 97.1243 89.8057 95.5316 88.7272 94.4359C89.2191 94.5019 89.5918 94.3436 89.8327 94.189C90.1831 93.9601 91.1031 93.2828 90.4492 91.9269L90.343 91.719C90.6029 91.787 90.8492 91.7954 91.0688 91.765C91.6757 91.6813 92.3438 91.4022 92.6904 90.4348C92.8978 89.8599 92.7946 88.6842 91.8691 87.4783C91.2221 86.634 90.1817 85.5975 89.2927 84.7485C89.4559 84.7574 89.6114 84.7454 89.7582 84.7226C90.4372 84.6059 91.1744 84.2645 91.5611 83.1905C91.7022 82.7978 91.8253 81.8413 91.1126 80.7594C90.2008 79.3748 87.2858 76.3978 86.9465 76.0147L84.5151 73.1893C84.4537 72.9769 84.3516 72.7725 84.2047 72.5905L79.9417 66.8428L76.6825 62.5118C75.6536 61.2179 74.4516 61.3152 73.7758 61.5932C73.377 61.7541 72.9296 62.1427 72.6647 62.69C71.7654 61.6863 70.7657 60.6594 70.0804 60.1974C68.9832 59.4543 68 59.5509 67.4676 59.8083C67.0156 60.022 65.7495 61.2844 66.6758 63.1621C67.2803 64.3851 68.9221 66.836 69.853 68.1872C69.4119 68.1929 69.0966 68.3592 68.8898 68.4965C68.4324 68.8054 70.5048 69.2635 70.4929 69.978C70.4851 70.4557 69.1546 72.3434 69.7139 73.0507L70.5874 74.0985C70.0461 74.5282 69.3446 75.4964 70.0429 76.8241C70.4437 77.5871 71.332 78.9643 72.0518 80.0415C71.125 79.7283 70.3717 80.097 70.1263 80.3368C69.824 80.6298 69.2457 81.6209 69.9123 82.934C70.1127 83.3254 70.447 83.8627 70.8343 84.4379C69.9363 84.6104 69.5025 85.1494 69.2622 85.6981C69.0816 86.1106 68.9861 86.6544 69.1851 87.2902C69.3246 87.7311 69.9671 88.5502 70.2354 88.9957L70.2903 89.0709L70.1857 89.0638C69.0949 89.0669 68.6703 89.6226 68.5164 90.2039C68.4361 90.5077 68.3932 90.9377 68.6144 91.4215C68.8848 92.0165 69.8796 93.0873 70.2849 93.6548L71.6404 95.6502C71.08 95.3942 70.5351 95.2529 70.0274 95.2358C69.5444 95.2201 67.1956 96.2503 68.2272 98.4385C68.635 99.3072 69.9283 101.433 69.9931 101.531L70.1817 101.825ZM90.7595 128.839C91.0756 129.087 91.3591 129.164 91.548 128.944C92.0989 128.295 91.4952 128.465 90.7595 128.839ZM71.995 113.397C71.9156 113.212 71.8212 113.12 71.7043 113.195C71.5147 113.316 71.7402 113.38 71.995 113.397Z"/>
<path fill-rule="evenodd" clip-rule="evenodd" d="M43.183 64.8785C43.2491 64.9525 43.3293 65.0173 43.4204 65.0769C44.1646 65.5427 46.1688 66.6088 47.8983 67.3503C49.8633 68.1978 51.6553 67.8334 52.1466 67.4876C52.2734 67.3978 52.7509 66.6396 52.6004 65.6283L52.6548 65.6622C53.6727 66.2203 54.6969 66.4703 55.7175 66.427C56.699 66.3878 57.2242 65.9854 57.516 65.4787C57.806 65.6934 58.1 65.8919 58.3954 66.0667C59.6925 66.8267 61.0283 67.1887 62.3712 67.0475C63.9806 66.8358 64.5221 65.9095 64.689 65.0116C64.7109 64.8931 64.7282 64.7672 64.7348 64.6286C66.0817 65.5432 67.3698 66.3613 68.2868 66.837C69.9259 67.6922 71.253 67.4698 71.6754 67.2808C72.0594 67.1037 72.9344 66.3187 73.0742 65.1753L73.4892 65.5408L79.414 70.1865C81.4564 71.7177 82.5595 72.3341 83.0506 72.5026C83.6357 72.7049 84.1203 72.7361 84.5175 72.6699C84.6775 74.4565 84.975 76.8321 85.6388 78.2105C86.367 79.7204 87.4883 80.4216 88.792 80.2666C89.4014 80.2083 90.7209 79.4685 90.5068 77.4844C90.3808 76.3072 89.768 74.0604 88.8436 71.6465L88.8831 71.609L88.9501 71.5253C89.2138 71.5377 89.4436 71.4965 89.6078 71.4403C90.1703 71.2548 90.9996 70.3187 91.4221 68.782C91.9569 66.8297 92.0833 63.4119 92.6985 62.5963C92.8597 62.3827 93.6317 62.1225 94.3928 61.7748C95.7026 62.3444 96.8969 62.4115 97.6619 61.9727C97.9849 61.79 98.3764 61.5568 98.5858 61.2044C98.8278 60.8013 99.0506 60.3589 98.9398 59.8106C98.4662 57.4668 97.2232 56.9594 95.5445 57.3063C95.1954 57.3814 94.8111 57.5192 94.4157 57.6956C93.1956 56.3779 91.843 54.4846 91.4404 54.1099L78.3396 42.5147C75.8307 40.3159 73.4526 38.3816 72.3051 37.7383C71.3417 37.1964 70.5746 37.2452 70.2192 37.3505C69.3744 37.6004 68.764 38.1475 68.7396 39.2574C68.7192 40.1659 69.1031 41.2814 69.8341 42.3752L69.8512 42.395C69.2458 42.0313 68.6829 41.7322 68.2777 41.5904C66.523 40.9717 65.5332 41.8709 65.2599 42.7067C65.1662 42.9902 65.1034 43.4104 65.2047 43.9025C64.8042 43.7149 64.4104 43.5935 64.0351 43.5412C62.2494 43.302 61.7312 44.291 61.621 45.2264C61.5831 45.5574 61.5934 46.045 61.8739 46.5917C61.9424 46.7266 62.0393 46.8802 62.156 47.0437C61.5203 47.4358 60.9276 47.8056 60.4932 47.9702C60.3916 48.0102 60.2783 48.0474 60.1591 48.0812C58.9516 47.9032 58.2012 48.2085 57.7324 48.7194L57.4764 48.8185C56.6827 49.1617 56.047 49.6463 55.6646 50.2825C54.8542 51.589 54.7789 52.5327 54.9916 53.2104C54.5409 53.3077 54.201 53.5277 54.0054 53.7014C53.4481 54.1958 53.0071 55.1827 53.4555 56.5221C52.3862 56.1073 51.3107 56.0024 50.2419 56.2575C50.0629 56.2974 48.6966 57.373 48.6672 58.7849C47.8404 58.564 47.0111 58.5029 46.1631 58.6842C45.548 58.816 43.9137 60.2619 45.2631 62.2718C45.599 62.7695 46.1803 63.5258 46.8027 64.2957C45.8541 64.0282 44.9437 63.7646 44.4106 63.7205C44.4093 63.7266 41.1407 65.7316 43.183 64.8785ZM96.1457 59.0143C96.3243 59.0256 96.4577 58.9273 96.5318 58.6912C96.5719 58.5669 96.325 58.8108 96.2244 58.8427L96.1457 59.0143ZM89.1664 62.9651L89.2653 63.0831L89.2792 63.0344L89.1261 62.922L89.1664 62.9651ZM86.7655 66.7928L86.8147 66.9041L86.8754 66.9629L86.8791 66.9625L86.9195 66.9327L86.9992 66.8812L86.8587 66.8365L86.7655 66.7928ZM59.4563 55.3532L60.1377 55.8884L59.7919 55.4607L59.4618 55.3526L59.4563 55.3532ZM53.3738 64.7552C53.372 65.2362 53.4566 65.6019 53.7694 65.2823C53.9299 65.1161 53.6821 64.9267 53.3738 64.7552ZM49.4538 64.8563C49.9772 64.8797 50.3081 64.7552 50.2765 64.3722C50.2454 63.9754 49.6352 64.5442 49.5228 64.6818C49.5011 64.7096 49.4772 64.7712 49.4538 64.8563ZM48.4591 60.9047L48.4753 60.7868C48.4836 60.6835 48.7468 59.8409 48.439 60.0615C48.1736 60.2541 48.2246 60.5504 48.4591 60.9047Z"/>
<path fill-rule="evenodd" clip-rule="evenodd" d="M96.9569 60.1713C98.5054 61.2288 100.035 62.0813 101.503 62.6347C106.835 64.6395 106.932 63.5657 102.802 60.303C102.654 60.1841 102.106 59.846 102.066 59.8245L99.7979 58.3045L94.0948 53.8154L87.7218 48.3307C85.9154 46.3931 84.2742 44.5392 82.8953 43.0348L81.8438 41.8712L93.2771 51.0044C96.013 52.9672 98.4722 55.3996 101.186 57.4573C102.418 58.3915 103.709 59.227 105.051 59.9647C105.273 60.0878 107.479 60.9835 109.243 61.761C109.933 62.1456 110.709 62.5649 111.158 62.7889C112.272 63.3411 113.036 62.4373 113.102 62.2848C113.155 62.1591 113.145 61.5592 112.668 60.9774C113.333 61.5321 114.016 62.081 114.693 62.5615C115.646 63.2405 116.592 63.798 117.474 64.1119C118.698 64.5483 119.131 63.6805 119.23 63.357C119.298 63.1392 119.353 62.7552 119.089 62.3074C119.013 62.1772 118.809 61.9576 118.549 61.7005C118.833 61.8528 119.085 61.959 119.199 61.9651C119.749 61.9897 120.098 61.7491 120.305 61.4442C120.453 61.2281 120.716 60.7972 120.4 60.1379C119.945 59.1756 119.04 58.1763 117.923 57.2008C115.884 55.425 113.103 53.6836 111.655 52.4444C108.504 49.7477 105.366 46.9334 102.322 44.0248C101.742 43.4692 101.166 42.9113 100.595 42.3509C100.928 41.913 101.074 41.2537 100.468 40.3285C100.251 39.9979 99.5525 39.224 97.9258 37.7705L93.9492 34.0113L91.8628 32.1418L91.9172 32.0278C91.9419 31.9563 91.9668 31.8849 91.9921 31.8192L92.0335 31.6514C92.146 31.3857 92.1883 31.0602 92.0611 30.6653C92.006 30.4956 91.5396 29.8477 91.3117 29.6129L91.3075 29.6093C90.4074 28.4855 88.7827 26.6634 88.6356 26.4991C87.8013 25.5401 86.528 23.5539 85.2685 22.1279C84.4874 21.2462 83.6941 20.5588 82.9373 20.2834C82.5754 20.1411 81.3974 20.5097 81.2684 21.3722C80.8727 21.4343 80.4062 21.5805 80.214 22.2307C80.1511 22.3909 80.122 22.6046 80.137 22.8435C80.0305 22.8544 79.9459 22.8768 79.8844 22.9028C78.9076 23.3376 78.5156 24.1383 78.6456 25.1891C78.712 25.7281 79.1547 26.4947 79.5293 27.0574C78.8542 26.6022 77.7961 25.8907 77.2795 25.5277C77.1202 25.41 77.0056 25.3232 76.951 25.2874C76.8494 25.217 76.7744 25.1852 76.7386 25.1672C75.5078 24.558 74.9251 25.6914 74.8119 25.969C74.6413 26.3865 74.7202 27.3617 75.4814 28.5292C75.8689 29.1261 76.4414 29.8696 77.1003 30.683C76.7605 30.8123 76.4196 30.9674 76.0879 31.1392L75.9394 31.2194C75.6498 31.0638 75.3384 30.8986 75.1236 30.8653C74.2884 30.728 73.6743 30.9997 73.3265 31.8825C73.2463 32.0759 73.2385 32.591 73.5367 33.2187L73.4683 33.3065L73.401 33.3311C72.9307 33.5506 72.509 33.8952 72.3078 34.3827L72.1524 34.3218C71.9911 34.2575 71.8866 34.2327 71.8381 34.2199C71.1692 34.0656 70.7688 34.2858 70.6158 34.3586C69.7835 34.7491 69.5073 35.4079 69.5731 36.1992C69.5812 36.2969 69.625 37.1693 70.6005 37.7001C70.7162 37.7612 71.0123 37.9063 71.2933 38.051C72.2159 38.7291 73.744 40.437 74.9541 41.1764L75.3677 41.4001L78.0565 44.1579C79.7811 45.9777 81.5294 47.7537 83.3337 49.4669L75.0754 43.3236C74.3238 42.7857 72.2202 41.4676 70.5589 40.3408C70.5403 40.2146 70.4356 40.113 70.3026 40.1049C70.2271 40.087 70.1522 40.0553 70.0797 40.0115L69.9558 39.9257C69.4878 39.5577 69.0654 38.7496 68.7052 38.4396C68.1086 37.9213 67.6501 38.0529 67.2708 38.7931C67.1943 38.9684 67.3022 39.5623 67.9323 40.1856C69.238 41.4729 72.7873 44.1171 73.7809 44.9732L87.3603 55.3589L92.3147 58.6181L95.8044 60.624C96.1426 60.8299 96.5833 60.7454 96.8228 60.4293C96.8883 60.3497 96.9302 60.2607 96.9569 60.1713ZM92.0991 44.4843L99.8805 51.8349L102.798 54.2422L107.535 57.9098L108.922 58.6607L110.324 59.4317L110.733 59.5692C110.833 59.6102 110.933 59.6472 111.036 59.688L111.261 59.7891C110.632 59.2524 110.036 58.7557 109.498 58.3496L92.0991 44.4843ZM68.4407 39.379C68.2656 39.2727 68.1266 39.2613 68.0494 39.4111C67.9517 39.6004 68.2847 39.5526 68.4407 39.379Z"/>
</svg>
